<?xml version="1.0" encoding="utf-8"?>
<!-- Generator: Adobe Illustrator 25.2.1, SVG Export Plug-In . SVG Version: 6.00 Build 0)  -->
<svg version="1.1" id="Ebene_1" xmlns="http://www.w3.org/2000/svg" xmlns:xlink="http://www.w3.org/1999/xlink" x="0px" y="0px"
	 viewBox="0 0 233.33 158.16" style="enable-background:new 0 0 233.33 158.16;" xml:space="preserve">
<style type="text/css">
	.st0{fill:#FFFFFF;}
</style>
<g>
	<path class="st0" d="M198.79,104.12c-5.81-14.68-11.63-29.43-17.37-44.12c0.74-0.1,1.53-0.19,2.29-0.28
		c2.58-0.31,5.01-0.61,6.28-0.98c0.92-0.27,1.55-1.11,1.55-2.07V39.83c0-1.19-0.97-2.16-2.16-2.16h-19.31
		c-1.19,0-2.16,0.97-2.16,2.16l0.01,5.09h-1.97c-0.46-1.48-1.36-2.77-2.64-3.67c-1.55-1.09-3.44-1.49-5.25-1.13l-24.1,4.46
		L119.8,30.62c-0.85-0.84-2.21-0.83-3.05,0.02c-0.84,0.85-0.83,2.22,0.02,3.05l14.95,14.76c0.5,0.49,1.22,0.72,1.91,0.59l25.23-4.66
		c0.69-0.14,1.39,0.02,1.96,0.42c0.61,0.43,1.01,1.08,1.14,1.92c0.14,0.73-0.02,1.46-0.44,2.07c-0.41,0.59-1.02,0.98-1.75,1.1
		l-27.63,5.05c-0.82,0.23-1.75-0.03-2.43-0.67l-16.83-16.49c-0.85-0.83-2.21-0.82-3.05,0.03c-0.83,0.85-0.82,2.22,0.03,3.05
		l16.86,16.51c1.37,1.3,3.11,1.98,4.79,1.98c0.54,0,1.09-0.07,1.6-0.22l27.39-5c1.85-0.3,3.47-1.32,4.56-2.88
		c0.44-0.63,0.73-1.31,0.95-2.01h1.91l0,4.28c2.43,23.39,5.93,57.43,6.74,66.41l-24.7,0c3.18-2.43,4.57-6.74,3.07-10.62
		l-12.21-31.47c-1.02-2.76-3.31-4.79-6.29-5.57l-12.38-3.05l2.28-12.5c0.21-1.17-0.56-2.3-1.73-2.51c-1.18-0.21-2.3,0.56-2.51,1.73
		l-2.65,14.5c-0.21,1.12,0.5,2.21,1.61,2.48l14.32,3.53c1.6,0.42,2.77,1.45,3.32,2.92l12.22,31.5c0.95,2.46-0.27,5.28-2.71,6.28
		c-1.13,0.45-2.39,0.41-3.53-0.09c-1.18-0.52-2.09-1.46-2.55-2.66l-10.94-28.13c-0.25-0.65-0.81-1.14-1.49-1.31l-27.16-6.82
		c-2.29-0.59-3.81-2.67-3.68-5.05c0.01-0.11,0-0.21-0.01-0.32l7.76-41.88c0.31-1.77,1.3-3.3,2.77-4.32c1.48-1.02,3.27-1.41,5.04-1.1
		l6.26,1.21c3.18,0.58,5.49,3.39,5.49,6.68c0,1.19,0.97,2.16,2.16,2.16c1.19,0,2.16-0.97,2.16-2.16c0-1.34-0.24-2.63-0.67-3.83
		c0.11,0.02,0.22,0.06,0.34,0.08c0.91,0.17,1.83,0.26,2.74,0.26c2.92,0,5.77-0.88,8.24-2.57c3.29-2.25,5.51-5.66,6.24-9.61
		c0.34-1.84,0.32-3.66,0.01-5.39h9.57c1.19,0,2.16-0.97,2.16-2.16s-0.97-2.16-2.16-2.16h-11.05c-2.04-3.9-5.74-6.86-10.34-7.73
		c-3.86-0.73-7.79,0.11-11.05,2.38c-2.38,1.65-4.18,3.89-5.25,6.47c-0.09,0.16-0.15,0.33-0.2,0.51c-0.31,0.85-0.55,1.73-0.71,2.64
		c-0.65,3.51-0.01,6.97,1.58,9.89l-4.72-0.91c-2.92-0.52-5.86,0.12-8.28,1.8c-2.43,1.68-4.04,4.21-4.56,7.1l-7.86,42.46
		c-0.06,0.3-0.04,0.6,0.04,0.89c0.03,2.25,0.86,4.31,2.24,5.92c-0.19-0.06-0.38-0.12-0.59-0.12H65.91c-2.7,0-4.98,2.33-4.98,5.09
		c0,0.28,0.04,0.55,0.08,0.83c-5.28,0.22-10.12,2.22-13.91,5.45L32.52,76.17H61.8c4.58,0,8.31-3.76,8.31-8.37V41.21
		c0-4.66-3.73-8.46-8.31-8.46H61C57.95,21.9,48.38,13.99,37.22,13.08v-3.2c0-1.19-0.97-2.16-2.16-2.16c-1.19,0-2.16,0.97-2.16,2.16
		v3.2C21.74,13.99,12.17,21.9,9.12,32.76h-0.8C3.73,32.76,0,36.55,0,41.21V67.8c0,4.62,3.73,8.37,8.31,8.37h18.08l17.7,17.56
		c-3.25,4.02-5.21,9.14-5.21,14.72v8.37c0,1.19,0.97,2.16,2.16,2.16h3.64c-1.96,3.76-2.98,7.95-2.98,12.34
		c0,14.8,11.89,26.84,26.51,26.84c14.67,0,26.6-12.04,26.6-26.84c0-1.19-0.97-2.16-2.16-2.16c-1.19,0-2.16,0.97-2.16,2.16
		c0,12.42-9.99,22.53-22.28,22.53c-12.24,0-22.19-10.1-22.19-22.53c0-4.49,1.28-8.73,3.68-12.34h6.63
		c-3.2,3.16-5.15,7.57-5.15,12.34c0,9.52,7.64,17.26,17.02,17.26c9.44,0,17.11-7.74,17.11-17.26c0-4.77-1.96-9.18-5.18-12.34h1.91
		c5.21,0,7.16,2.79,9.86,6.66c3.38,4.84,7.59,10.86,19.62,10.86h63.12c2.4,12.47,13.25,21.66,26.01,21.66
		c12.72,0,23.61-9.19,26.08-21.66h4.42c0.64,0,1.25-0.28,1.66-0.78c0.41-0.49,0.58-1.14,0.46-1.77
		C229.36,112.35,225.34,103.94,198.79,104.12z M125.05,6.18c2.31-1.6,5.07-2.2,7.8-1.69c2.41,0.46,4.48,1.73,5.98,3.49h-15.78
		C123.62,7.31,124.29,6.7,125.05,6.18z M120.67,13.01c0.04-0.24,0.09-0.48,0.15-0.71h20.23c0.37,1.46,0.44,3.03,0.15,4.61
		c-0.52,2.8-2.09,5.23-4.43,6.83c-2.29,1.56-5.03,2.14-7.75,1.63C123.36,24.3,119.6,18.77,120.67,13.01z M35.06,17.31
		c9.72,0,18.35,6.36,21.44,15.45H13.62C16.71,23.66,25.34,17.31,35.06,17.31z M8.31,71.85c-2.17,0-3.99-1.86-3.99-4.06V41.21
		c0-2.28,1.79-4.14,3.99-4.14h2.48h48.54h2.48c2.2,0,3.99,1.86,3.99,4.14V67.8c0,2.2-1.83,4.06-3.99,4.06H8.31z M136.18,115.96
		c0.62,1.61,1.68,2.96,3.03,3.97l-12.23,0c-7.32,0.04-7.28,0.03-10.33-6.61c-2.13-4.56-4.23-9.12-6.34-13.68
		c-1.57-3.39-3.14-6.78-4.72-10.18h0.81c2.53,0,4.56-1.77,4.97-4.18l14.27,3.58L136.18,115.96z M65.91,83.59h28.37
		c1.19,0,2.16-0.97,2.16-2.16c0-0.25-0.06-0.49-0.14-0.72c0.95,0.72,2.04,1.28,3.27,1.6l7.62,1.91c0,0.05-0.03,0.09-0.03,0.14
		c0,0.45-0.32,0.78-0.75,0.78h-4.19H65.91c-0.32,0-0.66-0.3-0.66-0.78C65.25,83.99,65.58,83.59,65.91,83.59z M81.01,131.32
		c0,7.14-5.74,12.95-12.8,12.95c-7.01,0-12.71-5.81-12.71-12.95c0-5.71,3.69-10.74,9-12.34h7.42
		C77.29,120.57,81.01,125.6,81.01,131.32z M200.66,153.85c-10.4,0-19.31-7.3-21.62-17.35h5.33c2.2,7.1,8.78,12.08,16.29,12.08
		c7.51,0,14.1-4.99,16.29-12.08h5.4C219.97,146.54,211.04,153.85,200.66,153.85z M189,136.5h23.33c-1.99,4.62-6.52,7.77-11.66,7.77
		C195.53,144.27,190.99,141.11,189,136.5z M224.93,132.18h-9.66h-29.22h-9.57h-64.94c-9.78,0-12.84-4.38-16.08-9.02
		c-2.78-3.98-5.94-8.5-13.4-8.5h-9.83H64.2h-21v-6.21c0-10.47,8.42-18.99,18.78-18.99h3.93h34.94c1.86,3.99,3.7,7.99,5.55,11.98
		c2.11,4.57,4.22,9.13,6.34,13.69c4.05,8.81,6.06,9.14,14.26,9.11l49.99,0c1.19,0,2.16-0.97,2.16-2.16c0-2.37-6.22-62.2-6.92-68.79
		v-4.06h5.53c1.19,0,2.16-0.97,2.16-2.16c0-1.19-0.97-2.16-2.16-2.16h-5.53v-2.94h15V54.9c-1.17,0.18-2.7,0.37-4.03,0.53
		c-2.25,0.27-4.19,0.51-5.28,0.78c-0.6,0.15-1.1,0.55-1.39,1.1c-0.28,0.55-0.32,1.2-0.09,1.77c6.24,15.97,12.56,32.03,18.89,48
		c0.33,0.83,1.09,1.38,2.04,1.36c24.43-0.4,27.74,5.45,31.21,23.73H224.93z"/>
</g>
</svg>
