<?xml version="1.0" encoding="utf-8"?>
<!-- Generator: Adobe Illustrator 25.2.1, SVG Export Plug-In . SVG Version: 6.00 Build 0)  -->
<svg version="1.1" id="Ebene_1" xmlns="http://www.w3.org/2000/svg" xmlns:xlink="http://www.w3.org/1999/xlink" x="0px" y="0px"
	 viewBox="0 0 194.67 184.88" style="enable-background:new 0 0 194.67 184.88;" xml:space="preserve">
<style type="text/css">
	.st0{fill:#FFFFFF;}
</style>
<g>
	<g>
		<path class="st0" d="M192.76,69.04h-9.5c-1.11-28.64-27.01-51.97-59.8-54.57c0.57-2.95,1.33-6.82,2.44-12.17
			c0.11-0.56-0.03-1.15-0.39-1.59C125.14,0.26,124.59,0,124.02,0h-13.25c-0.57,0-1.11,0.26-1.48,0.7c-0.36,0.44-0.51,1.02-0.4,1.58
			c0.69,3.55,1.28,6.45,1.76,8.86c0.25,1.24,0.47,2.33,0.67,3.33C78.5,17.04,52.57,40.38,51.46,69.04h-9.5
			c-1.06,0-1.91,0.86-1.91,1.91c0,5.1,4.12,9.25,9.18,9.25h2.73c0.09,0.76,0.39,1.58,0.92,2.49c0.07,0.13,0.16,0.24,0.26,0.35
			c15.01,15.89,21.94,27.11,18.15,44.36c-1.14,4.87-1.8,10.58,1.41,16.57l-0.93,0.38l-0.38-1.08c-0.27-0.77-0.99-1.28-1.8-1.28H1.91
			c-1.06,0-1.91,0.86-1.91,1.91v39.07c0,0.51,0.21,1.01,0.57,1.37c0.36,0.35,0.84,0.54,1.34,0.54c0.01,0,0.03,0,0.04,0l80.7-1.68
			c0.61-0.01,1.18-0.32,1.53-0.82c0.35-0.5,0.44-1.14,0.23-1.72l-2.82-8.1c28.25-15.56,31.3-19,57.19-52.66
			c11.33-14.91,25.62-26.68,43.54-39.7h3.16c5.06,0,9.18-4.15,9.18-9.25C194.67,69.9,193.81,69.04,192.76,69.04z M3.82,181.02
			v-35.21h64.41l11.71,33.62L3.82,181.02z M115.44,14.26c-0.09,0-0.17,0.01-0.26,0.01c-0.22-1.14-0.48-2.42-0.78-3.88
			c-0.38-1.87-0.81-4.03-1.31-6.56h8.58c-0.92,4.51-1.57,7.85-2.07,10.45c-0.1,0-0.2-0.01-0.29-0.01c-0.64-0.02-1.29-0.04-1.95-0.04
			C116.73,14.22,116.09,14.24,115.44,14.26z M115.57,18.08c1.23-0.04,2.42-0.04,3.57,0c32.69,0.79,59.15,23.17,60.31,50.96H55.26
			C56.43,41.26,82.88,18.87,115.57,18.08z M135.75,117.58c-25.13,32.67-27.72,36.02-55.41,51.31l-7.29-20.93l3.17-1.3
			c0.53-0.22,0.94-0.67,1.11-1.22c0.17-0.55,0.07-1.15-0.25-1.63c-3.73-5.47-3.2-10.7-2.06-15.56c4.53-20.64-5.88-33.81-18.94-47.66
			c-0.08-0.15-0.14-0.27-0.19-0.38c14.54,0.15,17.43,4.25,24.91,14.9c1.13,1.62,2.37,3.37,3.75,5.27
			c5.42,7.41,12.18,11.8,19.53,12.69c6.82,0.82,13.61-1.41,19.65-6.47c3.93-3.27,7.42-6.38,10.5-9.12
			c11.06-9.85,18.36-16.37,30.98-17.27h10.66C159.62,92.23,146.44,103.51,135.75,117.58z M72.54,80.21h78.27
			c-6.59,3.25-12.28,8.31-19.13,14.42c-3.06,2.72-6.52,5.81-10.41,9.04c-5.2,4.36-10.96,6.3-16.74,5.61
			c-6.27-0.76-12.12-4.62-16.91-11.16c-1.37-1.87-2.59-3.61-3.71-5.21C79.9,87.19,76.9,82.96,72.54,80.21z M185.49,76.38H49.22
			c-2.29,0-4.25-1.46-5.01-3.52h9.1H181.4h9.1C189.74,74.92,187.78,76.38,185.49,76.38z"/>
		<path class="st0" d="M174.64,62.59c-0.55-2.5-1.11-4.45-1.82-6.31c-3.48-9.11-9.89-17.09-18.57-23.07
			c-0.87-0.6-2.06-0.38-2.66,0.49c-0.6,0.87-0.38,2.06,0.49,2.66c8.03,5.54,13.97,12.9,17.16,21.28c0.64,1.68,1.15,3.46,1.66,5.77
			c0.2,0.89,0.99,1.5,1.86,1.5c0.14,0,0.27-0.01,0.41-0.04C174.21,64.64,174.86,63.62,174.64,62.59z"/>
		<path class="st0" d="M144.01,27.69c-3-1.31-5.89-2.32-8.84-3.08c-1.03-0.27-2.07,0.35-2.33,1.37c-0.26,1.02,0.35,2.06,1.37,2.33
			c2.75,0.71,5.46,1.65,8.27,2.88c0.25,0.11,0.51,0.16,0.76,0.16c0.74,0,1.44-0.43,1.75-1.15
			C145.42,29.24,144.98,28.11,144.01,27.69z"/>
	</g>
</g>
</svg>
