<?xml version="1.0" encoding="utf-8"?>
<!-- Generator: Adobe Illustrator 22.1.0, SVG Export Plug-In . SVG Version: 6.00 Build 0)  -->
<svg version="1.1" id="Layer_1" xmlns="http://www.w3.org/2000/svg" xmlns:xlink="http://www.w3.org/1999/xlink" x="0px" y="0px"
	 viewBox="0 0 32 32" style="enable-background:new 0 0 32 32;" xml:space="preserve">
<style type="text/css">
	.st0{fill:#FF8000;}
</style>
<path id="path-1_1_" class="st0" d="M29,12.6c0,0.1,0,0.2,0,0.4V13c0,0.1,0,0.3,0,0.4V14c0,0.5-0.4,1-1,1h-8.8c-0.7-1.6-1.8-3-3.2-4
	h12c0.5,0,1,0.4,1,1V12.6z M19.9,23C19.9,23,19.9,23,19.9,23l6.9,0c0,0,0.1,0,0.1,0H28c0.5,0,1,0.4,1,1v2c0,0.5-0.4,1-1,1H16
	c1.4-1,2.5-2.4,3.2-4H19.9z M28,9H14c-0.5,0-1-0.4-1-1V6c0-0.5,0.4-1,1-1h14c0.5,0,1,0.4,1,1v2C29,8.6,28.6,9,28,9z M18,19
	c0,4.4-3.6,8-8,8s-8-3.6-8-8s3.6-8,8-8S18,14.6,18,19z M28,17c0.5,0,1,0.4,1,1v2c0,0.5-0.4,1-1,1h-8.2c0.1-0.6,0.2-1.3,0.2-2
	c0-0.7-0.1-1.4-0.2-2H28z"/>
</svg>
