<?xml version="1.0" encoding="utf-8"?>
<!-- Generator: Adobe Illustrator 25.2.1, SVG Export Plug-In . SVG Version: 6.00 Build 0)  -->
<svg version="1.1" id="Ebene_1" xmlns="http://www.w3.org/2000/svg" xmlns:xlink="http://www.w3.org/1999/xlink" x="0px" y="0px"
	 viewBox="0 0 172.87 152.7" style="enable-background:new 0 0 172.87 152.7;" xml:space="preserve">
<style type="text/css">
	.st0{fill:#FFFFFF;}
</style>
<g>
	<g id="NewGroup35-0">
		<g>
			<path class="st0" d="M5.76,74.91h121.01v72.03H5.76V74.91L5.76,74.91z M27.49,40.34H144.8l-8.41,14.41l-8.38,14.41H8.27
				L27.49,40.34L27.49,40.34z M28.81,20.17c0-7.96,6.45-14.41,14.41-14.41h89.31c7.96,0,14.41,6.45,14.41,14.41v14.41H28.81V20.17
				L28.81,20.17z M134.66,69.15l7.58-12.99l7.58-12.94l15.15,25.93H134.66L134.66,69.15z M152.7,131.2v-56.3h14.41v68.66
				L152.7,131.2L152.7,131.2z M149.82,136.33l12.39,10.6h-24.78L149.82,136.33L149.82,136.33z M132.53,74.91h14.41v56.3
				l-14.41,12.36V74.91L132.53,74.91z M172.66,71.05v-0.26c0,0,0,0,0-0.2L152.7,36.68V20.17C152.7,9.03,143.67,0,132.53,0H43.22
				C32.08,0,23.05,9.03,23.05,20.17v16.42L0.49,70.44c-0.07,0.1-0.13,0.2-0.17,0.32v0.23C0.16,71.32,0.06,71.67,0,72.03v77.79
				c0,1.59,1.29,2.88,2.88,2.88h167.1c1.59,0,2.88-1.29,2.88-2.88V72.03C172.86,71.69,172.79,71.36,172.66,71.05L172.66,71.05z"/>
			<path class="st0" d="M112.36,23.05H60.5v-2.88c0-1.59,1.29-2.88,2.88-2.88h46.1c1.59,0,2.88,1.29,2.88,2.88V23.05L112.36,23.05z
				 M109.48,11.52h-46.1c-4.77,0-8.64,3.87-8.64,8.64v5.76c0,1.59,1.29,2.88,2.88,2.88h57.62c1.59,0,2.88-1.29,2.88-2.88v-5.76
				C118.13,15.39,114.25,11.52,109.48,11.52L109.48,11.52z"/>
			<path class="st0" d="M69.15,103.86c17.97-0.07,33,13.64,34.57,31.55h-69c1.5-17.91,16.46-31.68,34.43-31.69V103.86L69.15,103.86z
				 M72.03,98.1v-3.02h-5.76v2.88c-20.03,1.46-35.93,17.42-37.31,37.45h-5.91v5.76h92.2v-5.76h-5.76
				C108.02,115.39,92.06,99.48,72.03,98.1L72.03,98.1z"/>
			<path class="st0" d="M69.15,109.48v5.76c5.65-0.03,11.12,2.02,15.36,5.76l3.86-4.29C83.06,112.03,76.22,109.45,69.15,109.48
				L69.15,109.48z"/>
			<path class="st0" d="M93.09,122.27l-4.78,3.23c1.06,1.59,1.93,3.3,2.56,5.1l5.45-1.9C95.51,126.43,94.42,124.27,93.09,122.27
				L93.09,122.27z"/>
			<path class="st0" d="M51.86,89.31h23.05c1.59,0,2.88,1.29,2.88,2.88v2.88h5.76V92.2c-0.01-0.98-0.18-1.96-0.52-2.88h6.28
				c1.59,0,2.88,1.29,2.88,2.88v2.88h5.76V92.2c0-4.77-3.87-8.64-8.64-8.64H51.86c-1.59,0-2.88-1.29-2.88-2.88h-5.76
				C43.22,85.44,47.09,89.31,51.86,89.31L51.86,89.31z"/>
		</g>
	</g>
</g>
</svg>
