<?xml version="1.0" encoding="utf-8"?>
<!-- Generator: Adobe Illustrator 25.2.3, SVG Export Plug-In . SVG Version: 6.00 Build 0)  -->
<svg version="1.1" id="Ebene_1" xmlns="http://www.w3.org/2000/svg" xmlns:xlink="http://www.w3.org/1999/xlink" x="0px" y="0px"
	 viewBox="0 0 90.34 90.34" style="enable-background:new 0 0 90.34 90.34;" xml:space="preserve">
<style type="text/css">
	.st0{fill-rule:evenodd;clip-rule:evenodd;fill:#FFFFFF;stroke:#9D9D9C;stroke-width:2;stroke-miterlimit:10;}
	.st1{fill-rule:evenodd;clip-rule:evenodd;fill:#1A9DD9;}
</style>
<circle class="st0" cx="45.17" cy="45.17" r="44.67"/>
<g>
	<path class="st1" d="M22.45,47.08h2.2c0,0,0.27-1.15,0.6-2.57c0.33-1.42,2.94-2.57,5.82-2.57h28.75c2.88,0,5.39,1.15,5.59,2.57
		l0.36,2.57h1.99c2.88,0,5.23-2.34,5.23-5.23v-9.76c0-2.41-1.64-4.42-3.86-5.02c0.13,0.5,0.2,1.01,0.2,1.54v2.09
		c0,3.46-2.81,6.27-6.27,6.27H27.16c-3.46,0-6.27-2.82-6.27-6.27v-2.09c0-0.53,0.07-1.04,0.2-1.54c-2.22,0.61-3.86,2.61-3.86,5.02
		v9.76C17.22,44.74,19.56,47.08,22.45,47.08L22.45,47.08z"/>
	<path class="st1" d="M27.16,34.88h35.89c2.31,0,4.18-1.87,4.18-4.18v-2.09c0-0.62-0.14-1.21-0.39-1.74H23.36
		c-0.24,0.53-0.39,1.12-0.39,1.74v2.09C22.97,33.01,24.85,34.88,27.16,34.88L27.16,34.88z M25.08,28.72h39.47
		c0.29,0,0.53,0.23,0.53,0.52c0,0.29-0.23,0.53-0.53,0.53H25.08c-0.29,0-0.52-0.24-0.52-0.53C24.56,28.95,24.79,28.72,25.08,28.72
		L25.08,28.72z M25.08,31.99h39.47c0.29,0,0.53,0.23,0.53,0.52c0,0.29-0.23,0.53-0.53,0.53H25.08c-0.29,0-0.52-0.24-0.52-0.53
		C24.56,32.22,24.79,31.99,25.08,31.99L25.08,31.99z"/>
	<path class="st1" d="M63.78,45.16c-0.15-1.06-2.62-1.91-5.51-1.91H32.31c-2.89,0-5.39,0.86-5.58,1.91
		c-0.19,1.06-0.35,1.92-0.35,1.92h37.67L63.78,45.16L63.78,45.16z"/>
	<path class="st1" d="M29.88,63.38c0.2,0.17,0.44,0.25,0.68,0.25c0.3,0,0.59-0.12,0.79-0.36c0.16-0.19,3.94-4.62,1.07-8.22
		c-1.58-2-0.41-3.16-0.16-3.37c0.44-0.36,0.52-1.01,0.16-1.46c-0.36-0.45-1.02-0.53-1.47-0.17c-1.09,0.87-2.54,3.31-0.16,6.3
		c1.78,2.24-0.99,5.51-1.02,5.54C29.4,62.34,29.45,63,29.88,63.38L29.88,63.38z"/>
	<path class="st1" d="M39.03,63.38c0.2,0.17,0.44,0.25,0.68,0.25c0.3,0,0.59-0.12,0.79-0.36c0.16-0.19,3.94-4.62,1.07-8.22
		c-1.58-2-0.41-3.16-0.16-3.37c0.44-0.36,0.52-1.01,0.16-1.46c-0.36-0.45-1.02-0.53-1.47-0.17c-1.09,0.87-2.54,3.31-0.16,6.3
		c1.78,2.24-0.99,5.51-1.02,5.54C38.55,62.34,38.6,63,39.03,63.38L39.03,63.38z"/>
	<path class="st1" d="M48.18,63.38c0.2,0.17,0.44,0.25,0.68,0.25c0.3,0,0.59-0.12,0.79-0.36c0.16-0.19,3.94-4.62,1.07-8.22
		c-1.58-2-0.41-3.16-0.16-3.37c0.44-0.36,0.51-1.01,0.16-1.46c-0.36-0.45-1.02-0.53-1.47-0.17c-1.09,0.87-2.54,3.31-0.16,6.3
		c1.78,2.24-0.99,5.51-1.02,5.54C47.7,62.34,47.74,63,48.18,63.38L48.18,63.38z"/>
	<path class="st1" d="M57.33,63.38c0.2,0.17,0.44,0.25,0.68,0.25c0.3,0,0.59-0.12,0.79-0.36c0.16-0.19,3.94-4.62,1.07-8.22
		c-1.58-2-0.41-3.16-0.16-3.37c0.44-0.36,0.51-1.01,0.16-1.46c-0.36-0.45-1.02-0.53-1.47-0.17c-1.09,0.87-2.54,3.31-0.16,6.3
		c1.78,2.24-0.99,5.51-1.02,5.54C56.85,62.34,56.89,63,57.33,63.38L57.33,63.38z"/>
</g>
</svg>
