<?xml version="1.0" encoding="utf-8"?>
<!-- Generator: Adobe Illustrator 25.2.3, SVG Export Plug-In . SVG Version: 6.00 Build 0)  -->
<svg version="1.1" id="Ebene_1" xmlns="http://www.w3.org/2000/svg" xmlns:xlink="http://www.w3.org/1999/xlink" x="0px" y="0px"
	 viewBox="0 0 90.34 90.34" style="enable-background:new 0 0 90.34 90.34;" xml:space="preserve">
<style type="text/css">
	.st0{fill-rule:evenodd;clip-rule:evenodd;fill:#FFFFFF;stroke:#9D9D9C;stroke-width:2;stroke-miterlimit:10;}
	.st1{fill:#1A9DD9;}
</style>
<circle class="st0" cx="45.17" cy="45.17" r="44.67"/>
<g>
	<g>
		<polygon class="st1" points="19.93,56.92 19.93,71.94 29.71,69.35 26.57,56.31 "/>
		<g>
			<path class="st1" d="M63.02,56.07c-0.35-0.49-1-0.68-1.56-0.44l-8.6,3.56c-1.38,0.57-2.86,0.86-4.36,0.84L43,59.95
				c-0.5-0.01-0.9-0.43-0.88-0.94c0.02-0.38,0.28-0.71,0.65-0.81l5.59-1.55c0.67-0.19,1.06-0.87,0.9-1.54
				c-0.14-0.57-0.65-0.97-1.24-0.97h-8.39c-1.1,0-2.19,0.19-3.22,0.57l-6.71,2.45l2.23,10.02l2.03-0.5
				c0.45-0.11,0.92-0.18,1.39-0.19l13.47-0.5c1.39-0.05,2.73-0.49,3.88-1.27l9.99-6.8C63.3,57.5,63.45,56.67,63.02,56.07"/>
			<path class="st1" d="M45.28,47.02H15.46c0,0,0.66,1.81,3.92,1.81h3.74c0,0,0.48,3.8,2.86,3.8h18.87h18.87
				c2.37,0,2.86-3.8,2.86-3.8h4.59c3.26,0,3.92-1.81,3.92-1.81H45.28z"/>
			<path class="st1" d="M44.85,22.46c-12.5,0-22.63,10.13-22.63,22.63h45.26C67.49,32.59,57.35,22.46,44.85,22.46 M34.07,28.91
				c-0.28,0.3-0.57,0.59-0.84,0.9l-0.2,0.23l-0.1,0.12c-0.03,0.04-0.06,0.08-0.1,0.12l-0.38,0.48c-0.49,0.65-0.96,1.32-1.37,2.01
				c-0.83,1.39-1.5,2.86-1.99,4.38c-0.25,0.76-0.46,1.53-0.62,2.3c-0.08,0.39-0.15,0.77-0.21,1.16c-0.03,0.19-0.05,0.38-0.07,0.57
				l-0.01,0.14l-0.01,0.14c0,0.05-0.01,0.09-0.01,0.13c0,0.02,0,0.04,0,0.06l0,0.03c0,0.01,0,0.01,0,0.01l0,0.01l-3-0.36l0.01-0.06
				l0.01-0.05c0.01-0.03,0.01-0.06,0.02-0.09c0.01-0.06,0.03-0.12,0.04-0.18l0.04-0.17l0.04-0.17c0.06-0.22,0.12-0.44,0.19-0.65
				c0.13-0.43,0.27-0.85,0.43-1.27c0.31-0.83,0.67-1.64,1.06-2.43c0.79-1.57,1.75-3.04,2.85-4.38c0.55-0.67,1.15-1.3,1.76-1.9
				l0.47-0.44c0.04-0.04,0.08-0.07,0.12-0.11l0.12-0.1l0.25-0.21c0.32-0.28,0.67-0.54,1-0.8c1.37-1.02,2.86-1.85,4.4-2.51
				C36.55,26.71,35.23,27.75,34.07,28.91"/>
			<path class="st1" d="M45.45,20.79c1.25-0.27,2.18-1.38,2.18-2.71c0-1.53-1.24-2.78-2.78-2.78c-1.53,0-2.78,1.24-2.78,2.78
				c0,1.33,0.93,2.44,2.18,2.71v1.66h0.6h0.6V20.79z"/>
		</g>
	</g>
</g>
</svg>
