<?xml version="1.0" encoding="utf-8"?>
<!-- Generator: Adobe Illustrator 25.2.3, SVG Export Plug-In . SVG Version: 6.00 Build 0)  -->
<svg version="1.1" id="Ebene_1" xmlns="http://www.w3.org/2000/svg" xmlns:xlink="http://www.w3.org/1999/xlink" x="0px" y="0px"
	 viewBox="0 0 90.34 90.34" style="enable-background:new 0 0 90.34 90.34;" xml:space="preserve">
<style type="text/css">
	.st0{fill-rule:evenodd;clip-rule:evenodd;fill:#FFFFFF;stroke:#9D9D9C;stroke-width:2;stroke-miterlimit:10;}
	.st1{fill:#1A9DD9;}
</style>
<circle class="st0" cx="45.17" cy="45.17" r="44.67"/>
<g>
	<g>
		<g>
			<path class="st1" d="M36.35,29.97c2.98-0.18,5.26-2.74,5.07-5.71c-0.18-2.97-2.75-5.22-5.73-5.04c-2.98,0.18-5.26,2.74-5.07,5.71
				C30.8,27.9,33.37,30.15,36.35,29.97"/>
			<path class="st1" d="M73.65,61.87l-0.09-0.13c-0.47-0.69-1.4-0.86-2.07-0.39l-2.69,1.9L54.95,48.5c-0.23-0.6-0.82-1.01-1.48-0.97
				l-10.2,0.63L42.95,43l10.85-0.82c0.95-0.07,1.67-0.91,1.6-1.85l-0.07-0.91c-0.07-0.95-0.91-1.67-1.85-1.6l-10.79,0.81l-0.42-6.87
				c-0.05-0.84-0.76-1.48-1.58-1.43l-8.65,0.53c-0.82,0.05-1.44,0.78-1.39,1.61l1.19,19.34c0,0-0.71,3.64,2.97,4.32
				s17.15-1.92,17.15-1.92l13.11,13.96c0.3,0.32,0.72,0.46,1.13,0.43c0.32,0.02,0.65-0.06,0.94-0.26l6.15-4.35
				C73.95,63.51,74.12,62.56,73.65,61.87"/>
			<path class="st1" d="M37.7,67.25c-8.8,0.51-16.34-5.82-16.83-14.14c-0.36-6.19,3.27-11.73,8.78-14.37l-0.24-4.03
				c-7.75,2.96-13.02,10.33-12.53,18.63c0.61,10.4,10.03,18.31,21.03,17.67c7.76-0.45,14.23-5.03,17.16-11.34l-3.05-3.01
				C50.08,62.48,44.51,66.85,37.7,67.25"/>
		</g>
	</g>
</g>
</svg>
