<?xml version="1.0" encoding="utf-8"?>
<!-- Generator: Adobe Illustrator 25.3.1, SVG Export Plug-In . SVG Version: 6.00 Build 0)  -->
<svg version="1.1" id="Ebene_1" xmlns="http://www.w3.org/2000/svg" xmlns:xlink="http://www.w3.org/1999/xlink" x="0px" y="0px"
	 viewBox="0 0 297.72 177.78" style="enable-background:new 0 0 297.72 177.78;" xml:space="preserve">
<style type="text/css">
	.st0{clip-path:url(#SVGID_2_);}
	.st1{clip-path:url(#SVGID_4_);fill:#00A0DF;}
</style>
<g>
	<g>
		<defs>
			<rect id="SVGID_1_" x="3.04" y="21.49" width="344.81" height="145.17"/>
		</defs>
		<clipPath id="SVGID_2_">
			<use xlink:href="#SVGID_1_"  style="overflow:visible;"/>
		</clipPath>
		<g class="st0">
			<defs>
				<rect id="SVGID_3_" x="3.04" y="21.49" width="344.81" height="145.17"/>
			</defs>
			<clipPath id="SVGID_4_">
				<use xlink:href="#SVGID_3_"  style="overflow:visible;"/>
			</clipPath>
			<path class="st1" d="M228.34,78.51c-0.87,0-1.61,0.25-2.22,0.74c-0.61,0.49-1.13,1.12-1.54,1.87c-0.41,0.75-0.73,1.58-0.95,2.49
				c-0.22,0.91-0.39,1.78-0.5,2.61c2.45-0.04,4.43-0.45,5.95-1.24c1.52-0.79,2.28-1.91,2.28-3.38c0-0.79-0.25-1.5-0.74-2.13
				C230.13,78.83,229.37,78.51,228.34,78.51 M227.22,104.4c-1.74,0-3.47-0.22-5.18-0.65c-1.72-0.43-3.26-1.18-4.62-2.25
				c-1.36-1.07-2.48-2.49-3.35-4.26c-0.87-1.78-1.3-4.01-1.3-6.69c0-0.99,0.08-2.17,0.24-3.55c0.16-1.38,0.46-2.8,0.92-4.26
				c0.45-1.46,1.09-2.91,1.9-4.35c0.81-1.44,1.87-2.74,3.17-3.88c1.3-1.15,2.88-2.07,4.74-2.78c1.86-0.71,4.07-1.07,6.63-1.07
				c2.05,0,3.79,0.24,5.21,0.71c1.42,0.47,2.57,1.12,3.44,1.93c0.87,0.81,1.5,1.75,1.89,2.81c0.4,1.07,0.59,2.21,0.59,3.43
				c0,1.82-0.37,3.36-1.1,4.62c-0.73,1.26-1.68,2.32-2.84,3.17c-1.16,0.85-2.46,1.51-3.88,1.99c-1.42,0.47-2.82,0.84-4.21,1.1
				c-1.38,0.26-2.66,0.42-3.82,0.47c-1.16,0.06-2.06,0.09-2.7,0.09c0,0.75,0.11,1.49,0.33,2.22c0.22,0.73,0.54,1.37,0.98,1.92
				c0.43,0.55,1.01,1.01,1.72,1.36c0.71,0.36,1.58,0.53,2.61,0.53c1.03,0,1.83-0.17,2.4-0.5c0.57-0.33,1.04-0.71,1.39-1.13
				c0.35-0.41,0.66-0.79,0.92-1.13c0.26-0.33,0.6-0.5,1.04-0.5c0.2,0,0.54,0.05,1.04,0.15c0.49,0.1,1,0.31,1.51,0.62
				c0.51,0.31,0.97,0.75,1.36,1.3c0.39,0.55,0.59,1.26,0.59,2.13c0,1.15-0.36,2.13-1.07,2.96c-0.71,0.83-1.63,1.5-2.75,2.01
				c-1.13,0.51-2.38,0.89-3.76,1.13C229.86,104.28,228.52,104.4,227.22,104.4"/>
			<path class="st1" d="M261.69,89.77c-1.03,0-2.03,0.08-3.02,0.24c-0.99,0.16-1.87,0.41-2.64,0.74c-0.77,0.34-1.39,0.78-1.87,1.33
				c-0.47,0.55-0.71,1.22-0.71,2.01c0,0.91,0.29,1.54,0.86,1.9c0.57,0.36,1.19,0.53,1.87,0.53c0.63,0,1.26-0.14,1.9-0.42
				c0.63-0.28,1.19-0.7,1.69-1.27c0.49-0.57,0.92-1.27,1.27-2.1C261.4,91.9,261.61,90.92,261.69,89.77 M243.27,96.52
				c0-3.55,1.6-6.34,4.8-8.35c3.2-2.01,7.92-3.1,14.16-3.26c0.04-0.44,0.07-0.8,0.09-1.1c0.02-0.3,0.03-0.66,0.03-1.1
				c0-1.26-0.24-2.27-0.71-3.02c-0.47-0.75-1.46-1.13-2.96-1.13c-0.83,0-1.5,0.12-2.01,0.36c-0.51,0.24-0.93,0.56-1.24,0.98
				c-0.32,0.41-0.57,0.92-0.77,1.51c-0.2,0.59-0.38,1.24-0.53,1.95c-0.08,0.36-0.26,0.58-0.53,0.68c-0.28,0.1-0.71,0.15-1.3,0.15
				c-4.03,0-6.04-1.52-6.04-4.56c0-1.22,0.29-2.39,0.86-3.5c0.57-1.1,1.42-2.06,2.55-2.87c1.12-0.81,2.54-1.45,4.23-1.93
				c1.7-0.48,3.67-0.71,5.92-0.71c4.38,0,7.56,0.91,9.54,2.72c1.97,1.82,2.96,4.38,2.96,7.7c0,0.43-0.05,1.21-0.15,2.34
				c-0.1,1.13-0.22,2.31-0.35,3.55c-0.14,1.24-0.26,2.42-0.36,3.52c-0.1,1.11-0.15,1.88-0.15,2.31c0,0.99,0.18,1.69,0.53,2.1
				c0.35,0.41,0.76,0.7,1.21,0.86c0.45,0.16,0.86,0.28,1.21,0.35c0.36,0.08,0.53,0.28,0.53,0.59c0,0.87-0.12,1.76-0.36,2.67
				c-0.24,0.91-0.62,1.74-1.15,2.49c-0.53,0.75-1.26,1.36-2.19,1.84c-0.93,0.47-2.07,0.71-3.41,0.71c-1.9,0-3.32-0.46-4.26-1.36
				c-0.95-0.91-1.58-2.17-1.9-3.79c-0.95,1.38-2.18,2.59-3.7,3.61c-1.52,1.03-3.51,1.54-5.95,1.54c-1.19,0-2.3-0.14-3.35-0.41
				c-1.05-0.28-1.96-0.73-2.73-1.36c-0.77-0.63-1.38-1.45-1.84-2.46C243.5,99.16,243.27,97.94,243.27,96.52"/>
			<path class="st1" d="M285.27,104.34c-2.45,0-4.21-0.65-5.27-1.95c-1.07-1.3-1.6-3.45-1.6-6.46c0-0.47,0.03-1.07,0.09-1.78
				c0.06-0.71,0.14-1.63,0.24-2.75c0.1-1.13,0.23-2.52,0.39-4.18c0.16-1.66,0.33-3.67,0.5-6.04c0.18-2.37,0.37-5.15,0.59-8.35
				c0.22-3.2,0.45-6.91,0.68-11.14c0.04-0.87,0.14-1.38,0.3-1.54c0.12-0.12,0.43-0.18,0.95-0.18h2.31c1.18,0,2.17,0.14,2.96,0.42
				c0.79,0.28,1.42,0.65,1.89,1.12c0.47,0.47,0.81,1.02,1.01,1.63c0.2,0.61,0.3,1.25,0.3,1.93c0,0.79-0.05,1.93-0.15,3.41
				c-0.1,1.48-0.23,3.15-0.39,5.01c-0.16,1.86-0.32,3.79-0.47,5.8c-0.16,2.01-0.32,3.94-0.47,5.78c-0.16,1.84-0.29,3.49-0.38,4.95
				c-0.1,1.46-0.15,2.57-0.15,3.32c0,1.03,0.19,1.76,0.56,2.19c0.38,0.44,0.78,0.74,1.21,0.92c0.43,0.18,0.84,0.3,1.21,0.36
				c0.37,0.06,0.56,0.19,0.56,0.39c0,0.87-0.1,1.73-0.3,2.58c-0.2,0.85-0.55,1.62-1.07,2.31c-0.51,0.69-1.21,1.24-2.1,1.66
				C287.78,104.13,286.65,104.34,285.27,104.34"/>
			<path class="st1" d="M185.32,81.95c1.22-2.82,2.52-5.26,3.61-7.12c-0.17-0.37-0.36-0.72-0.58-1.02
				c-0.55-0.77-1.23-1.39-2.01-1.87c-0.79-0.47-1.68-0.81-2.67-1.01c-0.99-0.2-2.01-0.3-3.08-0.3c-1.97,0-3.69,0.37-5.15,1.12
				c-1.46,0.75-2.76,2.19-3.91,4.32c0-0.01,0-0.02,0-0.02c-3.46,6.12-8.47,17.31-6.31,27.72c0.29,0.02,0.6,0.03,0.92,0.03h2.13
				c0.51,0,0.85-0.08,1.01-0.24c0.16-0.16,0.26-0.47,0.3-0.95c0.08-1.22,0.2-2.66,0.36-4.29c0.16-1.64,0.3-3.37,0.41-5.18
				c0.12-1.93,0.33-3.79,0.62-5.57c0.3-1.78,0.69-3.33,1.18-4.65c0.49-1.32,1.12-2.38,1.87-3.17c0.75-0.79,1.66-1.18,2.72-1.18
				c1.18,0,1.98,0.4,2.4,1.18c0.41,0.79,0.62,1.7,0.62,2.73c0,0.67-0.07,1.75-0.21,3.23c-0.14,1.48-0.28,3.04-0.41,4.68
				c-0.14,1.64-0.28,3.22-0.41,4.74c-0.14,1.52-0.21,2.68-0.21,3.46c0,0.83,0.09,1.57,0.27,2.22c0.18,0.65,0.48,1.2,0.92,1.63
				c0.43,0.43,1.05,0.77,1.84,1.01c0.08,0.02,0.17,0.04,0.25,0.06C180.47,95.61,182.92,87.51,185.32,81.95"/>
			<path class="st1" d="M167.12,81.58c1.34-3.11,2.78-5.74,3.93-7.66c-0.2-0.46-0.49-0.86-0.88-1.21c-0.47-0.43-1.09-0.79-1.84-1.07
				c-0.75-0.28-1.72-0.41-2.9-0.41h-2.31c-0.51,0-0.83,0.06-0.95,0.18c-0.16,0.16-0.26,0.67-0.3,1.54
				c-0.32,4.34-0.58,7.99-0.8,10.93c-0.22,2.94-0.41,5.37-0.56,7.28c-0.16,1.92-0.27,3.42-0.33,4.5c-0.06,1.09-0.09,1.92-0.09,2.52
				c0,0.91,0.09,1.71,0.27,2.4c0.18,0.69,0.49,1.27,0.95,1.75c0.45,0.47,1.07,0.84,1.84,1.1c0.16,0.05,0.33,0.1,0.51,0.14
				C162.18,95.52,164.67,87.25,167.12,81.58"/>
			<path class="st1" d="M207.52,74.93c-0.49-1.09-1.16-1.94-1.98-2.58c-0.83-0.63-1.81-1.08-2.93-1.33
				c-1.12-0.26-2.3-0.39-3.52-0.39c-2.21,0-4.05,0.44-5.51,1.33c-1.13,0.69-2.18,1.79-3.17,3.31c-3.38,5.72-9.14,17.48-7.06,28.47
				c0.4,0.03,0.82,0.05,1.28,0.05h1.9c0.35,0,0.63-0.02,0.83-0.06c0.2-0.04,0.34-0.12,0.44-0.24c0.1-0.12,0.17-0.3,0.21-0.53
				c0.04-0.24,0.08-0.57,0.12-1.01c0.16-2.37,0.3-4.34,0.41-5.92c0.12-1.58,0.22-2.98,0.3-4.21c0.12-1.9,0.33-3.65,0.65-5.27
				c0.31-1.62,0.73-3.02,1.24-4.21c0.51-1.19,1.14-2.11,1.9-2.78c0.75-0.67,1.64-1.01,2.66-1.01c1.19,0,1.99,0.4,2.4,1.18
				c0.41,0.79,0.62,1.7,0.62,2.72c0,0.24-0.03,0.73-0.09,1.48c-0.06,0.75-0.14,1.63-0.24,2.64c-0.1,1.01-0.2,2.1-0.3,3.29
				c-0.1,1.18-0.2,2.33-0.3,3.44c-0.1,1.11-0.18,2.13-0.24,3.08c-0.06,0.95-0.09,1.68-0.09,2.19c0,0.83,0.09,1.57,0.27,2.22
				c0.18,0.65,0.48,1.2,0.92,1.63c0.43,0.43,1.05,0.77,1.84,1.01c0.79,0.24,1.82,0.36,3.08,0.36h1.9c0.35,0,0.63-0.02,0.83-0.06
				c0.2-0.04,0.35-0.12,0.44-0.24c0.1-0.12,0.17-0.3,0.21-0.53c0.04-0.24,0.08-0.57,0.12-1.01c0.12-2.01,0.28-4.12,0.47-6.31
				c0.2-2.19,0.38-4.32,0.53-6.4c0.16-2.07,0.3-4,0.42-5.77c0.12-1.78,0.18-3.28,0.18-4.5C208.26,77.37,208.02,76.02,207.52,74.93"
				/>
			<path class="st1" d="M66.33,89.77c-1.03,0-2.03,0.08-3.02,0.24c-0.99,0.16-1.87,0.41-2.64,0.74c-0.77,0.34-1.39,0.78-1.87,1.33
				c-0.47,0.55-0.71,1.22-0.71,2.01c0,0.91,0.29,1.54,0.86,1.9c0.57,0.36,1.19,0.53,1.87,0.53c0.63,0,1.26-0.14,1.9-0.42
				c0.63-0.28,1.19-0.7,1.69-1.27c0.49-0.57,0.92-1.27,1.27-2.1C66.03,91.9,66.25,90.92,66.33,89.77 M47.91,96.52
				c0-3.55,1.6-6.34,4.8-8.35c3.2-2.01,7.92-3.1,14.16-3.26c0.04-0.44,0.07-0.8,0.09-1.1c0.02-0.3,0.03-0.66,0.03-1.1
				c0-1.26-0.24-2.27-0.71-3.02c-0.47-0.75-1.46-1.13-2.96-1.13c-0.83,0-1.5,0.12-2.01,0.36c-0.51,0.24-0.93,0.56-1.24,0.98
				c-0.32,0.41-0.57,0.92-0.77,1.51c-0.2,0.59-0.38,1.24-0.53,1.95c-0.08,0.36-0.26,0.58-0.53,0.68c-0.28,0.1-0.71,0.15-1.3,0.15
				c-4.03,0-6.04-1.52-6.04-4.56c0-1.22,0.29-2.39,0.86-3.5c0.57-1.1,1.42-2.06,2.55-2.87c1.13-0.81,2.54-1.45,4.24-1.93
				c1.7-0.48,3.67-0.71,5.92-0.71c4.38,0,7.56,0.91,9.54,2.72c1.97,1.82,2.96,4.38,2.96,7.7c0,0.43-0.05,1.21-0.15,2.34
				c-0.1,1.13-0.22,2.31-0.36,3.55c-0.14,1.24-0.26,2.42-0.36,3.52c-0.1,1.11-0.15,1.88-0.15,2.31c0,0.99,0.18,1.69,0.53,2.1
				c0.36,0.41,0.76,0.7,1.21,0.86c0.45,0.16,0.86,0.28,1.21,0.35c0.36,0.08,0.53,0.28,0.53,0.59c0,0.87-0.12,1.76-0.36,2.67
				c-0.24,0.91-0.62,1.74-1.16,2.49c-0.53,0.75-1.26,1.36-2.19,1.84c-0.93,0.47-2.06,0.71-3.41,0.71c-1.9,0-3.32-0.46-4.26-1.36
				c-0.95-0.91-1.58-2.17-1.9-3.79c-0.95,1.38-2.18,2.59-3.7,3.61c-1.52,1.03-3.51,1.54-5.95,1.54c-1.18,0-2.3-0.14-3.35-0.41
				c-1.05-0.28-1.95-0.73-2.72-1.36c-0.77-0.63-1.38-1.45-1.84-2.46C48.13,99.16,47.91,97.94,47.91,96.52"/>
			<path class="st1" d="M96.83,70.64c3.36,0,5.82,0.66,7.4,1.98c1.58,1.32,2.37,3.01,2.37,5.06c0,1.74-0.54,3.06-1.63,3.97
				c-1.09,0.91-2.66,1.36-4.71,1.36c-0.55,0-0.93-0.06-1.13-0.18c-0.2-0.12-0.3-0.34-0.3-0.65c0-0.36-0.03-0.76-0.09-1.21
				c-0.06-0.45-0.2-0.89-0.41-1.3c-0.22-0.41-0.55-0.76-1.01-1.04c-0.45-0.28-1.1-0.41-1.93-0.41c-1.11,0-1.99,0.27-2.67,0.8
				c-0.67,0.53-1.01,1.2-1.01,1.99c0,0.83,0.35,1.49,1.04,1.98c0.69,0.49,1.56,0.96,2.61,1.39c1.05,0.43,2.18,0.88,3.41,1.33
				c1.22,0.46,2.36,1.06,3.41,1.81c1.05,0.75,1.91,1.69,2.61,2.81c0.69,1.13,1.04,2.58,1.04,4.35c0,2.84-1.01,5.17-3.02,6.99
				c-2.01,1.82-5.03,2.72-9.06,2.72c-1.11,0-2.38-0.09-3.82-0.27c-1.44-0.18-2.81-0.45-4.12-0.83c-1.3-0.38-2.4-0.88-3.29-1.51
				c-0.89-0.63-1.33-1.42-1.33-2.37c0-0.36,0.07-0.79,0.21-1.3c0.14-0.51,0.36-1.01,0.65-1.48c0.3-0.47,0.65-0.88,1.07-1.22
				c0.41-0.34,0.92-0.5,1.51-0.5c0.47,0,0.91,0.12,1.3,0.36c0.39,0.24,0.86,0.48,1.39,0.74c0.53,0.26,1.19,0.5,1.98,0.74
				c0.79,0.24,1.84,0.36,3.14,0.36c0.99,0,1.87-0.12,2.64-0.36c0.77-0.24,1.16-0.77,1.16-1.6c0-0.75-0.32-1.35-0.95-1.81
				c-0.63-0.45-1.43-0.88-2.4-1.27c-0.97-0.39-2.01-0.82-3.14-1.27c-1.13-0.45-2.17-1.06-3.14-1.81c-0.97-0.75-1.77-1.71-2.4-2.87
				c-0.63-1.16-0.95-2.67-0.95-4.53c0-2.01,0.41-3.72,1.21-5.12c0.81-1.4,1.86-2.54,3.14-3.41c1.28-0.87,2.73-1.49,4.35-1.87
				C93.59,70.82,95.21,70.64,96.83,70.64"/>
			<path class="st1" d="M122.18,76.68c0,0.91-0.06,1.98-0.18,3.23c-0.12,1.25-0.25,2.49-0.39,3.73c-0.14,1.25-0.27,2.41-0.39,3.5
				c-0.12,1.09-0.18,1.93-0.18,2.52c0,1.5,0.37,2.62,1.1,3.35c0.73,0.73,1.63,1.1,2.7,1.1c1.86,0,3.34-0.97,4.44-2.9
				c1.1-1.93,1.8-4.5,2.07-7.7l0.95-11.08c0.04-0.43,0.19-0.74,0.44-0.92c0.26-0.18,0.54-0.27,0.86-0.27h2.13
				c0.83,0,1.61,0.07,2.34,0.21c0.73,0.14,1.37,0.39,1.93,0.77c0.55,0.38,0.99,0.88,1.3,1.51c0.32,0.63,0.47,1.44,0.47,2.43
				c0,0.4-0.03,1.14-0.09,2.22c-0.06,1.09-0.16,2.65-0.3,4.68c-0.14,2.03-0.33,4.6-0.56,7.7c-0.24,3.1-0.51,6.88-0.83,11.34
				c-0.2,2.61-0.78,4.77-1.75,6.49c-0.97,1.72-2.18,3.08-3.64,4.09c-1.46,1.01-3.1,1.71-4.92,2.1c-1.82,0.4-3.67,0.59-5.57,0.59
				c-2.01,0-3.86-0.18-5.54-0.53c-1.68-0.36-3.13-0.85-4.35-1.48c-1.22-0.63-2.18-1.36-2.87-2.19c-0.69-0.83-1.04-1.72-1.04-2.67
				c0-0.75,0.17-1.4,0.5-1.96c0.33-0.55,0.78-1.01,1.33-1.36c0.55-0.35,1.19-0.62,1.93-0.8c0.73-0.18,1.49-0.27,2.28-0.27
				c0.39,0,0.68,0.2,0.86,0.59c0.18,0.39,0.45,0.84,0.83,1.33c0.37,0.49,0.98,0.94,1.81,1.33c0.83,0.4,2.07,0.59,3.73,0.59
				c1.46,0,2.65-0.35,3.55-1.07c0.91-0.71,1.61-1.62,2.1-2.72c0.49-1.11,0.82-2.31,0.98-3.61c0.16-1.3,0.24-2.55,0.24-3.73
				c-0.63,1.11-1.33,2.01-2.1,2.7c-0.77,0.69-1.57,1.22-2.4,1.6c-0.83,0.38-1.66,0.62-2.49,0.74c-0.83,0.12-1.62,0.18-2.37,0.18
				c-1.46,0-2.79-0.2-4-0.59c-1.21-0.39-2.24-1.04-3.11-1.92c-0.87-0.89-1.54-2.04-2.01-3.47c-0.47-1.42-0.71-3.14-0.71-5.15
				c0-0.75,0.04-1.75,0.12-2.99c0.08-1.24,0.18-2.64,0.3-4.21c0.12-1.56,0.25-3.25,0.39-5.06c0.14-1.82,0.29-3.67,0.44-5.57
				c0.08-1.22,0.63-1.84,1.66-1.84h1.9c1.26,0,2.29,0.12,3.08,0.36c0.79,0.24,1.41,0.58,1.87,1.04c0.45,0.45,0.76,1.03,0.92,1.72
				C122.1,75.03,122.18,75.81,122.18,76.68"/>
			<path class="st1" d="M41.51,94.51c-0.51-0.32-1.02-0.52-1.51-0.62c-0.49-0.1-0.84-0.15-1.04-0.15c-0.43,0-0.78,0.17-1.04,0.5
				c-0.26,0.34-0.56,0.71-0.92,1.12c-0.36,0.42-0.82,0.79-1.39,1.13c-0.57,0.34-1.37,0.5-2.4,0.5c-1.03,0-1.9-0.18-2.61-0.53
				c-0.71-0.36-1.28-0.81-1.72-1.36c-0.44-0.55-0.76-1.19-0.98-1.93c-0.07-0.25-0.12-0.5-0.17-0.76c-3.46-0.29-7.36-0.9-10.34-2.11
				c0,0.07,0,0.16,0,0.23c0,2.69,0.43,4.91,1.3,6.69c0.87,1.78,1.98,3.2,3.35,4.26c1.36,1.07,2.9,1.82,4.62,2.25
				c1.72,0.43,3.45,0.65,5.18,0.65c1.3,0,2.65-0.12,4.03-0.35c1.38-0.24,2.64-0.61,3.76-1.13c1.13-0.51,2.04-1.18,2.75-2.01
				s1.07-1.82,1.07-2.96c0-0.87-0.2-1.58-0.59-2.13C42.48,95.26,42.02,94.82,41.51,94.51"/>
			<path class="st1" d="M45.54,76.09c-0.4-1.07-1.03-2-1.9-2.81c-0.87-0.81-2.01-1.45-3.44-1.92c-1.42-0.47-3.16-0.71-5.21-0.71
				c-2.57,0-4.78,0.35-6.63,1.07c-1.86,0.71-3.44,1.64-4.74,2.78c-1.3,1.15-2.36,2.44-3.17,3.88c-0.81,1.44-1.44,2.89-1.9,4.35
				c-0.08,0.26-0.15,0.53-0.23,0.79c3.91,1.55,7.69,1.51,9.67,1.34c0.08-0.41,0.17-0.82,0.27-1.24c0.22-0.91,0.53-1.74,0.95-2.49
				c0.41-0.75,0.93-1.37,1.54-1.87c0.61-0.49,1.35-0.74,2.22-0.74c1.03,0,1.79,0.32,2.28,0.95C35.75,80.09,36,80.8,36,81.59
				c0,1.46-0.76,2.59-2.28,3.38c-1.09,0.57-4,1.15-4,1.15c-0.05,0.01-1.46,0.29-3.6,0.29c-2.18,0-5.12-0.29-8.14-1.45
				c-0.14,0.68-0.26,1.36-0.33,2.03c-0.07,0.63-0.13,1.21-0.16,1.76c2.87,1.29,6.93,2.2,10.57,2.2c0.58-0.01,1.33-0.04,2.24-0.08
				c1.16-0.06,2.44-0.22,3.82-0.47c1.38-0.26,2.78-0.62,4.21-1.1c1.42-0.47,2.71-1.14,3.88-1.99c1.16-0.85,2.11-1.9,2.84-3.17
				c0.73-1.26,1.1-2.8,1.1-4.62C46.13,78.3,45.93,77.15,45.54,76.09"/>
			<path class="st1" d="M148.21,94.07c0-2.51-0.13-4.99-0.38-7.44c0.33,24.79-14.72,49.46-40.18,61.61
				c-33.99,16.21-73.67,3.95-88.62-27.39c-14.95-31.34,0.49-69.89,34.48-86.1c13.32-6.35,27.51-8.32,40.75-6.49
				c2.07,3.39,1.76,6.51,1.44,7.76c-0.1,0.39-0.02,0.68,0.29,0.83c3.27,1.55,25.73,11.85,25.73,11.85l0.1-0.11l0.03-0.14
				l-19.13-12.47c0,0-0.31-0.19-0.09-0.57c0.21-0.37,0.53-0.21,0.53-0.21l20.61,9.84l0.12-0.1l0.03-0.16l-19.07-12.54
				c0,0-0.31-0.19-0.12-0.53c0.19-0.34,0.52-0.18,0.52-0.18l20.57,9.89l0.11-0.11l0.04-0.15l-19.05-12.6c0,0-0.3-0.19-0.1-0.56
				c0.21-0.36,0.53-0.21,0.53-0.21l20.54,9.98l0.1-0.1l0.03-0.14c0,0-20.39-13.94-23.41-15.95c-0.28-0.19-0.58-0.1-0.86,0.18
				c-0.9,0.92-3.42,2.8-7.41,2.76c-6.57-1.96-13.52-3.04-20.73-3.04c-40.09,0-72.59,32.5-72.59,72.59
				c0,40.09,32.5,72.59,72.59,72.59C115.72,166.66,148.21,134.16,148.21,94.07 M95.15,28.39c0.05,0.01,0.1,0.02,0.14,0.02
				c0.63,1.02,1.48,2.84,1.63,5.46c0.03,0.59,0.03,1.97,0.67,2.47c0.72,0.54,2.06,1.3,5.33,3.07c-3.04-1.36-5.49-2.47-6.41-2.91
				c-0.31-0.14-0.39-0.44-0.29-0.82C96.54,34.48,96.94,31.61,95.15,28.39"/>
		</g>
	</g>
</g>
</svg>
