<?xml version="1.0" encoding="utf-8"?>
<!-- Generator: Adobe Illustrator 25.2.3, SVG Export Plug-In . SVG Version: 6.00 Build 0)  -->
<svg version="1.1" id="Ebene_1" xmlns="http://www.w3.org/2000/svg" xmlns:xlink="http://www.w3.org/1999/xlink" x="0px" y="0px"
	 viewBox="0 0 90.34 90.34" style="enable-background:new 0 0 90.34 90.34;" xml:space="preserve">
<style type="text/css">
	.st0{fill-rule:evenodd;clip-rule:evenodd;fill:#FFFFFF;stroke:#9D9D9C;stroke-width:2;stroke-miterlimit:10;}
	.st1{fill:#1A9DD9;}
</style>
<circle class="st0" cx="45.17" cy="45.17" r="44.67"/>
<g>
	<path class="st1" d="M48.24,31.59c0-0.39-0.07-0.76-0.19-1.11c0.03,0.01,0.06,0.02,0.1,0.02c0.26,0.05,0.53,0.08,0.8,0.08
		c0.85,0,1.68-0.26,2.4-0.75c0.96-0.65,1.6-1.65,1.81-2.79c0.1-0.54,0.09-1.06,0-1.57h2.78c0.35,0,0.63-0.28,0.63-0.63
		c0-0.35-0.28-0.63-0.63-0.63h-3.21c-0.59-1.13-1.67-1.99-3.01-2.25c-1.12-0.21-2.27,0.03-3.21,0.69c-0.69,0.48-1.22,1.13-1.53,1.88
		c-0.03,0.05-0.04,0.1-0.06,0.15c-0.09,0.25-0.16,0.5-0.21,0.77c-0.19,1.02,0,2.03,0.46,2.88l-1.37-0.26
		c-0.85-0.15-1.7,0.03-2.41,0.52c-0.71,0.49-1.17,1.22-1.33,2.06L37.78,43c-0.02,0.09-0.01,0.17,0.01,0.26
		c0.01,0.65,0.25,1.25,0.65,1.72c-0.06-0.02-0.11-0.03-0.17-0.03h-8.26c-0.79,0-1.45,0.68-1.45,1.48c0,0.08,0.01,0.16,0.02,0.24
		c-1.54,0.06-2.94,0.65-4.04,1.58l-4.24-4.21h8.51c1.33,0,2.42-1.09,2.42-2.43v-7.73c0-1.36-1.08-2.46-2.42-2.46h-0.23
		c-0.89-3.15-3.67-5.45-6.91-5.72v-0.93c0-0.35-0.28-0.63-0.63-0.63c-0.35,0-0.63,0.28-0.63,0.63v0.93
		c-3.25,0.26-6.03,2.56-6.91,5.72h-0.23c-1.33,0-2.42,1.1-2.42,2.46v7.73c0,1.34,1.08,2.43,2.42,2.43h5.26l5.15,5.11
		c-0.95,1.17-1.51,2.66-1.51,4.28v2.43c0,0.35,0.28,0.63,0.63,0.63h1.06c-0.57,1.09-0.87,2.31-0.87,3.59c0,4.3,3.46,7.8,7.71,7.8
		c4.27,0,7.73-3.5,7.73-7.8c0-0.35-0.28-0.63-0.63-0.63c-0.35,0-0.63,0.28-0.63,0.63c0,3.61-2.9,6.55-6.48,6.55
		c-3.56,0-6.45-2.94-6.45-6.55c0-1.31,0.37-2.54,1.07-3.59h1.93c-0.93,0.92-1.5,2.2-1.5,3.59c0,2.77,2.22,5.02,4.95,5.02
		c2.74,0,4.98-2.25,4.98-5.02c0-1.39-0.57-2.67-1.51-3.59h0.56c1.51,0,2.08,0.81,2.87,1.94c0.98,1.41,2.21,3.16,5.71,3.16h18.35
		c0.7,3.63,3.85,6.3,7.56,6.3c3.7,0,6.87-2.67,7.58-6.3h1.29c0.19,0,0.36-0.08,0.48-0.23c0.12-0.14,0.17-0.33,0.13-0.51
		c-1.14-6.28-2.31-8.73-10.03-8.67c-1.69-4.27-3.38-8.56-5.05-12.83c0.22-0.03,0.44-0.06,0.67-0.08c0.75-0.09,1.46-0.18,1.83-0.28
		c0.27-0.08,0.45-0.32,0.45-0.6v-4.9c0-0.35-0.28-0.63-0.63-0.63H60.3c-0.35,0-0.63,0.28-0.63,0.63l0,1.48H59.1
		c-0.13-0.43-0.4-0.81-0.77-1.07c-0.45-0.32-1-0.43-1.53-0.33l-7.01,1.3l-4.12-4.06l-2.54,0.7l-0.35,2.27l4.9,4.8
		c0.4,0.38,0.9,0.58,1.39,0.58c0.16,0,0.32-0.02,0.47-0.06l7.96-1.45c0.54-0.09,1.01-0.38,1.33-0.84c0.13-0.18,0.21-0.38,0.28-0.58
		h0.56v1.24c0.71,6.8,1.72,16.7,1.96,19.31h-7.18c0.92-0.71,1.33-1.96,0.89-3.09l-3.55-9.15c-0.3-0.8-0.96-1.39-1.83-1.62l-3.6-0.89
		l0.66-3.63 M45.94,25.67c0.01-0.07,0.03-0.14,0.04-0.21h5.88c0.11,0.42,0.13,0.88,0.04,1.34c-0.15,0.81-0.61,1.52-1.29,1.99
		c-0.67,0.45-1.46,0.62-2.25,0.47C46.72,28.95,45.63,27.35,45.94,25.67z M21.04,26.92c2.83,0,5.34,1.85,6.23,4.49H14.81
		C15.71,28.77,18.22,26.92,21.04,26.92z M50.45,55.61c0.18,0.47,0.49,0.86,0.88,1.15h-3.56c-2.13,0.01-2.12,0.01-3-1.92
		c-0.62-1.33-1.23-2.65-1.84-3.98c-0.46-0.99-0.91-1.97-1.37-2.96h0.24c0.74,0,1.33-0.51,1.45-1.22l4.15,1.04L50.45,55.61z
		 M34.4,60.07c0,2.08-1.67,3.77-3.72,3.77c-2.04,0-3.7-1.69-3.7-3.77c0-1.66,1.07-3.12,2.62-3.59h2.16
		C33.32,56.95,34.4,58.41,34.4,60.07z M69.2,66.62c-3.02,0-5.61-2.12-6.29-5.04h1.55c0.64,2.06,2.55,3.51,4.74,3.51
		s4.1-1.45,4.74-3.51h1.57C74.81,64.5,72.21,66.62,69.2,66.62z M65.81,61.58h6.78c-0.58,1.34-1.9,2.26-3.39,2.26
		S66.38,62.92,65.81,61.58z"/>
</g>
</svg>
