<?xml version="1.0" encoding="utf-8"?>
<!-- Generator: Adobe Illustrator 25.2.3, SVG Export Plug-In . SVG Version: 6.00 Build 0)  -->
<svg version="1.1" id="Ebene_1" xmlns="http://www.w3.org/2000/svg" xmlns:xlink="http://www.w3.org/1999/xlink" x="0px" y="0px"
	 viewBox="0 0 90.34 90.34" style="enable-background:new 0 0 90.34 90.34;" xml:space="preserve">
<style type="text/css">
	.st0{fill-rule:evenodd;clip-rule:evenodd;fill:#FFFFFF;stroke:#9D9D9C;stroke-width:2;stroke-miterlimit:10;}
	.st1{fill:#1A9DD9;}
</style>
<circle class="st0" cx="45.17" cy="45.17" r="44.67"/>
<g>
	<g>
		<g>
			<path class="st1" d="M47.1,58.21c0.64,0.27,1.22,0.65,1.7,1.13c0.48,0.48,0.86,1.05,1.13,1.7c0.26,0.62,0.4,1.29,0.4,1.99
				c0,0.7-0.14,1.37-0.4,1.99c-0.27,0.64-0.65,1.22-1.13,1.7c-0.48,0.48-1.05,0.86-1.7,1.13c-0.62,0.26-1.29,0.4-1.99,0.4
				c-0.7,0-1.37-0.14-1.99-0.4c-0.64-0.27-1.22-0.65-1.7-1.13c-0.48-0.48-0.86-1.05-1.13-1.7c-0.26-0.62-0.4-1.29-0.4-1.99
				c0-0.7,0.14-1.37,0.4-1.99c0.27-0.64,0.65-1.22,1.13-1.7c0.48-0.48,1.05-0.86,1.7-1.13c0.62-0.26,1.29-0.4,1.99-0.4
				C45.81,57.81,46.48,57.96,47.1,58.21"/>
			<path class="st1" d="M45.11,55.96c0.95,0,1.87,0.19,2.7,0.54c0.87,0.36,1.65,0.88,2.3,1.53c0.65,0.65,1.17,1.43,1.53,2.3
				c0.35,0.84,0.54,1.75,0.54,2.7c0,0.95-0.19,1.87-0.54,2.7c-0.36,0.87-0.89,1.65-1.53,2.3c-0.65,0.65-1.43,1.17-2.3,1.53
				c-0.84,0.35-1.75,0.54-2.7,0.54s-1.87-0.19-2.7-0.54c-0.87-0.36-1.65-0.88-2.3-1.53c-0.65-0.65-1.17-1.43-1.53-2.3
				c-0.35-0.84-0.54-1.75-0.54-2.7c0-0.95,0.19-1.87,0.54-2.7c0.36-0.87,0.88-1.65,1.53-2.3c0.65-0.65,1.43-1.17,2.3-1.53
				C43.24,56.15,44.15,55.96,45.11,55.96"/>
			<path class="st1" d="M64.98,49.77c-0.82-0.24-1.55-0.8-2-1.61c-0.95-1.75-2.1-3.28-3.41-4.59c-1.37-1.37-2.91-2.51-4.55-3.4
				c-1.53-0.83-3.18-1.46-4.88-1.89c-1.72-0.43-3.51-0.65-5.3-0.65c-1.79,0-3.57,0.22-5.3,0.65c-1.7,0.42-3.34,1.05-4.88,1.89
				c-1.65,0.9-3.18,2.03-4.55,3.4c-1.31,1.31-2.46,2.84-3.41,4.59c-0.44,0.81-1.17,1.37-2,1.61c-0.79,0.23-1.67,0.18-2.46-0.23
				c-0.03-0.01-0.06-0.03-0.09-0.04l0.47-0.86l-0.46,0.85c-0.81-0.44-1.37-1.17-1.61-2c-0.23-0.79-0.18-1.67,0.23-2.46
				c0.01-0.03,0.03-0.06,0.04-0.09l0,0l0,0l0.79,0.43l0.07,0.04l-0.85-0.46c1.27-2.33,2.81-4.37,4.55-6.12
				c1.83-1.84,3.89-3.35,6.09-4.55c2.05-1.12,4.23-1.96,6.45-2.52c2.27-0.57,4.6-0.86,6.93-0.86c2.32,0,4.66,0.29,6.93,0.86
				c2.23,0.56,4.4,1.4,6.45,2.52c2.21,1.2,4.26,2.72,6.09,4.55c1.73,1.73,3.25,3.75,4.51,6.05c0.03,0.05,0.06,0.11,0.09,0.16
				c0.4,0.79,0.46,1.67,0.23,2.46c-0.23,0.79-0.76,1.5-1.53,1.95c-0.06,0.04-0.11,0.07-0.18,0.1C66.65,49.94,65.77,50,64.98,49.77"
				/>
			<path class="st1" d="M72.02,41.21c-0.85-0.16-1.63-0.64-2.15-1.41c-1.03-1.5-2.17-2.86-3.4-4.1c-1.27-1.27-2.64-2.4-4.08-3.39
				c-2.56-1.75-5.35-3.07-8.27-3.96c-2.99-0.91-6.13-1.36-9.27-1.36c-3.14,0-6.28,0.45-9.27,1.36c-2.92,0.89-5.71,2.21-8.27,3.96
				c-1.45,0.99-2.82,2.12-4.08,3.39c-1.23,1.23-2.37,2.6-3.4,4.1c-0.52,0.77-1.31,1.25-2.15,1.41c-0.84,0.16-1.75,0-2.51-0.53
				c-0.77-0.52-1.25-1.31-1.41-2.15c-0.16-0.84,0-1.75,0.53-2.51c1.27-1.85,2.67-3.53,4.2-5.06c1.57-1.57,3.26-2.97,5.05-4.2
				c3.12-2.14,6.53-3.75,10.09-4.83c3.65-1.11,7.45-1.67,11.24-1.67c3.79,0,7.59,0.56,11.24,1.67c3.56,1.09,6.97,2.7,10.09,4.83
				c1.79,1.22,3.48,2.62,5.05,4.2c1.52,1.52,2.93,3.21,4.2,5.06c0.52,0.77,0.69,1.67,0.53,2.51c-0.16,0.85-0.64,1.63-1.41,2.15
				C73.77,41.2,72.86,41.37,72.02,41.21"/>
			<path class="st1" d="M26.64,56.67c-0.72-0.99-0.92-2.33-0.06-3.68c0.85-1.35,1.83-2.56,2.91-3.64c1.12-1.12,2.33-2.09,3.62-2.91
				c1.75-1.11,3.64-1.95,5.6-2.51c2-0.57,4.07-0.86,6.13-0.86c2.07,0,4.13,0.29,6.13,0.86c1.96,0.56,3.85,1.4,5.6,2.51
				c1.29,0.82,2.5,1.78,3.62,2.91c1.08,1.08,2.06,2.29,2.91,3.64c0.85,1.34,0.65,2.69-0.06,3.68c-0.27,0.37-0.61,0.69-0.99,0.93
				c-0.38,0.24-0.82,0.42-1.27,0.5c-1.2,0.23-2.5-0.16-3.36-1.51c-0.59-0.93-1.26-1.76-1.99-2.49c-0.75-0.76-1.58-1.41-2.47-1.98
				c-2.43-1.54-5.28-2.31-8.13-2.31c-2.85,0-5.7,0.77-8.13,2.31c-0.88,0.56-1.71,1.22-2.47,1.98c-0.73,0.73-1.4,1.56-1.99,2.49
				c-0.85,1.35-2.15,1.74-3.36,1.51c-0.45-0.08-0.88-0.26-1.27-0.5C27.25,57.36,26.91,57.04,26.64,56.67"/>
		</g>
	</g>
</g>
</svg>
