<?xml version="1.0" encoding="utf-8"?>
<!-- Generator: Adobe Illustrator 25.2.3, SVG Export Plug-In . SVG Version: 6.00 Build 0)  -->
<svg version="1.1" id="Ebene_1" xmlns="http://www.w3.org/2000/svg" xmlns:xlink="http://www.w3.org/1999/xlink" x="0px" y="0px"
	 viewBox="0 0 90.34 90.34" style="enable-background:new 0 0 90.34 90.34;" xml:space="preserve">
<style type="text/css">
	.st0{fill-rule:evenodd;clip-rule:evenodd;fill:#FFFFFF;stroke:#9D9D9C;stroke-width:2;stroke-miterlimit:10;}
	.st1{fill:#1A9DD9;}
</style>
<circle class="st0" cx="45.17" cy="45.17" r="44.67"/>
<g>
	<path class="st1" d="M75.05,32.45c0-6.48-5.25-11.72-11.72-11.72c-6.48,0-11.72,5.25-11.72,11.72c0,6.07,4.62,11.07,10.53,11.66
		c0,0.02,0,0.04,0,0.06v23.45h-7.09v-2.83h1.02c0.63,0,1.14-0.51,1.14-1.14V52.93c0-0.63-0.51-1.14-1.14-1.14h-0.84l-4.79-11.66
		c-0.18-0.45-0.62-0.74-1.11-0.74H25.87c-0.5,0-0.94,0.31-1.12,0.77c-1.88,4.95-4.08,10.54-4.56,11.45
		c-0.05,0.06-0.09,0.11-0.12,0.18h-0.85c-0.63,0-1.14,0.51-1.14,1.14v10.71c0,0.63,0.51,1.14,1.14,1.14h0.95v2.83h-5
		c-0.66,0-1.2,0.54-1.2,1.2c0,0.66,0.54,1.2,1.2,1.2h54.66c0.66,0,1.2-0.54,1.2-1.2c0-0.66-0.54-1.2-1.2-1.2h-5.3V44.17
		c0-0.02,0-0.04,0-0.06C70.44,43.51,75.05,38.52,75.05,32.45z M23.08,51c0.41-0.99,0.96-2.36,1.63-4.08
		c0.79-2.02,1.58-4.06,1.99-5.14h21.82l3.87,9.4H23C23.03,51.13,23.05,51.07,23.08,51z M20.91,51.21c-0.06,0.01-0.13,0.03-0.19,0.05
		C20.78,51.23,20.84,51.22,20.91,51.21z M21,51.19c-0.03,0-0.06,0.01-0.09,0.01C20.95,51.2,20.97,51.2,21,51.19z M27.78,58.44
		c-0.07,1.15-1.01,2.09-2.16,2.16c-1.4,0.09-2.55-1.06-2.46-2.46c0.07-1.15,1.01-2.09,2.16-2.16
		C26.72,55.89,27.87,57.04,27.78,58.44z M47.35,58.14c0.07-1.15,1.01-2.09,2.16-2.16c1.4-0.09,2.55,1.06,2.46,2.46
		c-0.07,1.15-1.01,2.09-2.16,2.16C48.42,60.68,47.27,59.53,47.35,58.14z M27.04,64.78h21.13v2.83H27.04V64.78z M68.97,32.2
		c-0.3,0.56-0.68,1-1.13,1.32c-0.46,0.32-0.93,0.53-1.4,0.63c-0.64,0.13-1.58,0.19-2.8,0.19h-1.76v5.04h-2.7V26.02h4.33
		c1.64,0,2.71,0.07,3.21,0.2c0.77,0.2,1.41,0.64,1.92,1.31c0.52,0.67,0.77,1.54,0.77,2.6C69.42,30.95,69.27,31.64,68.97,32.2z"/>
	<path class="st1" d="M65.13,28.37c-0.32-0.06-0.97-0.09-1.94-0.09h-1.3v3.79h1.48c1.06,0,1.77-0.07,2.13-0.21
		c0.36-0.14,0.64-0.36,0.84-0.66c0.2-0.3,0.31-0.64,0.31-1.04c0-0.49-0.14-0.89-0.43-1.2C65.93,28.65,65.56,28.45,65.13,28.37z"/>
</g>
</svg>
