<?xml version="1.0" encoding="utf-8"?>
<!-- Generator: Adobe Illustrator 25.2.3, SVG Export Plug-In . SVG Version: 6.00 Build 0)  -->
<svg version="1.1" id="Ebene_1" xmlns="http://www.w3.org/2000/svg" xmlns:xlink="http://www.w3.org/1999/xlink" x="0px" y="0px"
	 viewBox="0 0 90.34 90.34" style="enable-background:new 0 0 90.34 90.34;" xml:space="preserve">
<style type="text/css">
	.st0{fill-rule:evenodd;clip-rule:evenodd;fill:#FFFFFF;stroke:#9D9D9C;stroke-width:2;stroke-miterlimit:10;}
	.st1{fill:#1A9DD9;}
</style>
<circle class="st0" cx="45.17" cy="45.17" r="44.67"/>
<g>
	<g>
		<g>
			<path class="st1" d="M37.06,39.53c3.5,1.88,6.99-4.03,7.13-8.34c0.13-4.3-2.96-9.01-4.98-11.16c-2.02-2.15-5.24-0.94-5.92,0.13
				c0,0-0.93,0.76-1.57,2.77c-0.33,1.05-0.58,2.43-0.58,4.22c0,1.53,0.21,3.06,0.58,4.5C32.65,35.17,34.59,38.2,37.06,39.53"/>
			<path class="st1" d="M51.59,40.61c2.94,0.83,5.82-2.8,7.56-6.51c0.81-1.72,1.37-3.46,1.59-4.78c0.37-2.3-0.04-5.75-1.59-7.72
				c-1.26-1.6-3.26-2.23-6.21-0.48c0,0-4.84,3.09-5.51,7.8C46.75,33.62,47.28,39.4,51.59,40.61"/>
			<path class="st1" d="M63.55,38.99c0,0-2.61,1.87-4.41,4.58c-0.85,1.28-1.51,2.74-1.64,4.29c-0.26,3.07,0.25,5.49,1.64,6.85
				c0.8,0.78,1.91,1.22,3.33,1.22c3.9,0,8.88-5.65,8.88-10.89C71.35,39.8,68.53,35.77,63.55,38.99"/>
			<path class="st1" d="M31.73,49.96c0.64-1.22,0.75-3,0.36-5.59c-0.08-0.55-0.2-1.07-0.36-1.58c-1.36-4.47-5.16-7.3-5.16-7.3
				c-7.8-3.5-8.88,5.78-7.26,9.82c1.61,4.03,4.71,7.66,8.47,6.99C29.74,51.96,31.04,51.28,31.73,49.96"/>
			<path class="st1" d="M59.14,60.15c-2.63-5.48-7.16-10.62-9.17-12.41c-2.42-2.15-6.72-2.96-8.74-0.54c0,0-5.37,3.96-9.5,9
				c-1.57,1.91-2.96,3.99-3.81,6.06c-2.65,6.45,0.42,9.55,3.81,9.79c0.57,0.04,1.14,0,1.7-0.11c3.9-0.81,9.95-4.71,16.41-2.15
				c3.68,1.46,7.27,1.34,9.31-0.25c1.53-1.2,2.18-3.24,1.32-6.07C60.12,62.36,59.67,61.25,59.14,60.15"/>
		</g>
	</g>
</g>
</svg>
