<?xml version="1.0" encoding="utf-8"?>
<!-- Generator: Adobe Illustrator 25.2.3, SVG Export Plug-In . SVG Version: 6.00 Build 0)  -->
<svg version="1.1" id="Ebene_1" xmlns="http://www.w3.org/2000/svg" xmlns:xlink="http://www.w3.org/1999/xlink" x="0px" y="0px"
	 viewBox="0 0 90.34 90.34" style="enable-background:new 0 0 90.34 90.34;" xml:space="preserve">
<style type="text/css">
	.st0{fill-rule:evenodd;clip-rule:evenodd;fill:#FFFFFF;stroke:#9D9D9C;stroke-width:2;stroke-miterlimit:10;}
	.st1{fill:#1A9DD9;}
</style>
<circle class="st0" cx="45.17" cy="45.17" r="44.67"/>
<g>
	<g>
		<g>
			<path class="st1" d="M59.25,35.71c0.65,0.64,1.49,0.96,2.34,0.96c0.85,0,1.7-0.33,2.35-0.98c0.35-0.35,0.6-0.76,0.77-1.22
				c1.52-2.33,3.05-3.65,4.1-4.36c0.59-0.14,1.12-0.45,1.55-0.88c0.63-0.63,0.97-1.46,0.97-2.35c0-0.89-0.35-1.72-0.98-2.34
				l-4.53-4.51c-1.3-1.29-3.4-1.28-4.69,0.01c-0.43,0.43-0.73,0.97-0.87,1.56c-0.71,1.06-2.02,2.6-4.34,4.13
				c-0.46,0.17-0.87,0.43-1.22,0.78c-0.62,0.63-0.97,1.46-0.97,2.35c0,0.89,0.35,1.72,0.98,2.34L59.25,35.71z"/>
			<path class="st1" d="M49.25,29.33c-1.05-1.05-2.77-1.05-3.83,0c-0.91,0.91-1.03,2.3-0.38,3.35c-0.38,0.2-0.72,0.45-1.03,0.76
				c-0.8,0.8-1.24,1.86-1.24,2.99c0,0.86,0.25,1.68,0.72,2.37l-8.16,8.16c-0.76-0.37-2.28-0.97-4.3-1.11
				c-1.7-0.12-3.41,0.11-5.09,0.67c-2.08,0.7-4.1,1.92-6.02,3.64c-0.01,0.01-0.02,0.02-0.03,0.03l-0.99,0.99
				c-0.15,0.15-0.23,0.35-0.23,0.57v19.11c0,0.44,0.36,0.8,0.8,0.8h18.94c0.21,0,0.42-0.08,0.57-0.23l1.07-1.07
				c0.01-0.01,0.02-0.02,0.03-0.03c1.71-1.92,2.94-3.95,3.64-6.02c0.57-1.68,0.79-3.39,0.67-5.09c-0.14-2-0.73-3.51-1.1-4.28
				l8.17-8.17c0.69,0.47,1.51,0.72,2.37,0.72c1.13,0,2.19-0.44,2.99-1.24c0.3-0.3,0.55-0.63,0.74-1c0.48,0.35,1.04,0.53,1.61,0.53
				c0.69,0,1.39-0.26,1.91-0.79l0,0c0.51-0.51,0.79-1.19,0.79-1.91c0-0.72-0.28-1.4-0.79-1.91L49.25,29.33z"/>
			<path class="st1" d="M70.38,38.17c-0.02,0-0.51-0.05-1.29-0.05c-0.41,0-0.83,0.01-1.25,0.04c-0.44,0.03-0.77,0.41-0.74,0.85
				c0,0.01,0,0.01,0,0.02c-0.26,0.03-0.52,0.07-0.79,0.11c0-0.01,0-0.01,0-0.02c-0.09-0.43-0.52-0.71-0.95-0.61
				c-0.86,0.19-1.68,0.44-2.43,0.76c-0.41,0.17-0.6,0.64-0.43,1.05c0.13,0.31,0.43,0.49,0.74,0.49c0.1,0,0.21-0.02,0.31-0.06
				c0.66-0.28,1.38-0.5,2.15-0.67c0.26-0.06,0.47-0.24,0.56-0.47l1.01-0.16c0.16,0.2,0.41,0.33,0.69,0.31
				c0.38-0.03,0.76-0.04,1.14-0.04c0.69,0,1.12,0.04,1.12,0.04c0.03,0,0.06,0,0.09,0c0.4,0,0.75-0.3,0.8-0.72
				C71.14,38.61,70.82,38.22,70.38,38.17"/>
			<path class="st1" d="M50.13,27.95c0.1,0.04,0.21,0.06,0.31,0.06c0.31,0,0.61-0.18,0.74-0.49c0.32-0.75,0.57-1.57,0.76-2.43
				c0.09-0.43-0.18-0.86-0.61-0.95c-0.01,0-0.01,0-0.02,0c0.04-0.27,0.08-0.54,0.11-0.79c0.01,0,0.01,0,0.02,0c0.02,0,0.04,0,0.06,0
				c0.42,0,0.77-0.32,0.8-0.75c0.03-0.42,0.04-0.84,0.04-1.25c0-0.78-0.05-1.27-0.05-1.29c-0.05-0.44-0.44-0.76-0.88-0.71
				c-0.44,0.05-0.76,0.44-0.71,0.88c0,0,0.04,0.44,0.04,1.12c0,0.38-0.01,0.76-0.04,1.14c-0.02,0.28,0.11,0.53,0.31,0.69l-0.16,1.01
				c-0.23,0.1-0.41,0.3-0.47,0.56c-0.17,0.77-0.39,1.49-0.67,2.15C49.53,27.31,49.72,27.78,50.13,27.95"/>
		</g>
	</g>
</g>
</svg>
