<?xml version="1.0" encoding="utf-8"?>
<!-- Generator: Adobe Illustrator 25.2.3, SVG Export Plug-In . SVG Version: 6.00 Build 0)  -->
<svg version="1.1" id="Ebene_1" xmlns="http://www.w3.org/2000/svg" xmlns:xlink="http://www.w3.org/1999/xlink" x="0px" y="0px"
	 viewBox="0 0 90.34 90.34" style="enable-background:new 0 0 90.34 90.34;" xml:space="preserve">
<style type="text/css">
	.st0{fill-rule:evenodd;clip-rule:evenodd;fill:#FFFFFF;stroke:#9D9D9C;stroke-width:2;stroke-miterlimit:10;}
	.st1{fill-rule:evenodd;clip-rule:evenodd;fill:#1A9DD9;}
</style>
<circle class="st0" cx="45.17" cy="45.17" r="44.67"/>
<g>
	<g>
		<g>
			<path class="st1" d="M77.22,29.5c0,0,1.64,2.55-0.55,6.56c-2.19,4.01-0.36,6.28-0.36,6.28C75,37.66,82.08,34.51,77.22,29.5"/>
			<path class="st1" d="M72.12,32.97c0,0,1.56,2.42-0.52,6.23c-2.08,3.8-0.35,5.97-0.35,5.97C70.02,40.72,76.73,37.73,72.12,32.97"
				/>
			<path class="st1" d="M68.62,47.82h-5.19H26.82c0,0.07-0.01,0.14-0.02,0.21c-0.14,0.75-0.25,1.53-0.33,2.33
				c-0.07,0.77-0.11,1.61-0.11,2.51c0,0.9,0.04,1.74,0.11,2.52c0.07,0.8,0.18,1.59,0.33,2.34c0.01,0.07,0.02,0.13,0.02,0.2h36.61
				h5.19h0.55v-0.55v-9.01v-0.55H68.62z M9.95,47.82h0.55h5.19h8.83c-0.13,0.73-0.24,1.51-0.31,2.35c-0.08,0.9-0.12,1.81-0.12,2.71
				c0,0.9,0.04,1.81,0.12,2.71c0.08,0.83,0.18,1.62,0.31,2.34h-8.83H10.5H9.95v-0.55v-9.01V47.82z"/>
			<rect x="70.7" y="47.82" class="st1" width="2.23" height="10.11"/>
			<rect x="74.47" y="47.82" class="st1" width="2.23" height="10.11"/>
		</g>
	</g>
</g>
</svg>
