<?xml version="1.0" encoding="utf-8"?>
<!-- Generator: Adobe Illustrator 25.2.3, SVG Export Plug-In . SVG Version: 6.00 Build 0)  -->
<svg version="1.1" id="Ebene_1" xmlns="http://www.w3.org/2000/svg" xmlns:xlink="http://www.w3.org/1999/xlink" x="0px" y="0px"
	 viewBox="0 0 90.34 90.34" style="enable-background:new 0 0 90.34 90.34;" xml:space="preserve">
<style type="text/css">
	.st0{fill-rule:evenodd;clip-rule:evenodd;fill:#FFFFFF;stroke:#9D9D9C;stroke-width:2;stroke-miterlimit:10;}
	.st1{fill:#1A9DD9;}
	.st2{fill:#FFFFFF;}
</style>
<circle class="st0" cx="45.17" cy="45.17" r="44.67"/>
<g>
	<g>
		<g id="NewGroup35-0">
			<g>
				<path class="st1" d="M73.56,44.13v-0.09c0,0,0,0,0-0.07l-6.7-11.38v-5.54c0-3.74-3.03-6.77-6.77-6.77H30.11
					c-3.74,0-6.77,3.03-6.77,6.77v5.51l-7.57,11.36c-0.02,0.03-0.04,0.07-0.06,0.11v0.08c-0.05,0.11-0.09,0.23-0.11,0.35v26.11
					c0,0.53,0.43,0.97,0.97,0.97h56.09c0.53,0,0.97-0.43,0.97-0.97V44.46C73.63,44.34,73.6,44.23,73.56,44.13L73.56,44.13z"/>
				<path class="st2" d="M53.32,28.02H35.91v-0.97c0-0.53,0.43-0.97,0.97-0.97h15.47c0.53,0,0.97,0.43,0.97,0.97V28.02L53.32,28.02z
					 M52.35,24.15H36.88c-1.6,0-2.9,1.3-2.9,2.9v1.93c0,0.53,0.43,0.97,0.97,0.97h19.34c0.53,0,0.97-0.43,0.97-0.97v-1.93
					C55.26,25.44,53.95,24.15,52.35,24.15L52.35,24.15z"/>
				<path class="st2" d="M38.82,55.14c6.03-0.02,11.08,4.58,11.6,10.59H27.26c0.5-6.01,5.52-10.63,11.56-10.64V55.14L38.82,55.14z
					 M39.78,53.21v-1.01h-1.93v0.97c-6.72,0.49-12.06,5.85-12.52,12.57h-1.98v1.93h30.95v-1.93h-1.93
					C51.86,59.01,46.51,53.67,39.78,53.21L39.78,53.21z"/>
				<path class="st2" d="M38.82,57.03v1.93c1.9-0.01,3.73,0.68,5.16,1.93l1.3-1.44C43.49,57.88,41.19,57.02,38.82,57.03L38.82,57.03
					z"/>
				<path class="st2" d="M46.85,61.32l-1.6,1.08c0.36,0.53,0.65,1.11,0.86,1.71l1.83-0.64C47.66,62.71,47.3,61.99,46.85,61.32
					L46.85,61.32z"/>
				<path class="st2" d="M33.01,50.26h7.74c0.53,0,0.97,0.43,0.97,0.97v0.97h1.93v-0.96c0-0.33-0.06-0.66-0.17-0.97h2.11
					c0.53,0,0.97,0.43,0.97,0.97v0.97h1.93v-0.97c0-1.6-1.3-2.9-2.9-2.9H33.01c-0.53,0-0.97-0.43-0.97-0.97h-1.93
					C30.11,48.96,31.41,50.26,33.01,50.26L33.01,50.26z"/>
			</g>
		</g>
	</g>
	<g>
		<g id="NewGroup35-0_1_">
			<g>
				<path class="st2" d="M58.16,45.42V69.6H17.54V45.42 M24.83,33.82h39.37l-2.82,4.84l-2.81,4.84H18.38L24.83,33.82L24.83,33.82z
					 M25.28,27.05c0-2.67,2.16-4.84,4.84-4.84h29.98c2.67,0,4.84,2.16,4.84,4.84v4.84H25.28V27.05L25.28,27.05z M60.8,43.49
					l2.54-4.36l2.54-4.34l5.09,8.7L60.8,43.49L60.8,43.49z M66.86,64.32v-18.9h4.84v23.05L66.86,64.32L66.86,64.32z M65.89,66.04
					l4.16,3.56h-8.32L65.89,66.04L65.89,66.04z M60.09,45.42h4.84v18.9l-4.84,4.15V45.42L60.09,45.42z M73.56,44.13v-0.09
					c0,0,0,0,0-0.07l-6.7-11.38v-5.54c0-3.74-3.03-6.77-6.77-6.77H30.11c-3.74,0-6.77,3.03-6.77,6.77v5.51l-7.57,11.36
					c-0.02,0.03-0.04,0.07-0.06,0.11v0.08c-0.05,0.11-0.09,0.23-0.11,0.35v26.11c0,0.53,0.43,0.97,0.97,0.97h56.09
					c0.53,0,0.97-0.43,0.97-0.97V44.46C73.63,44.34,73.6,44.23,73.56,44.13L73.56,44.13z"/>
				<path class="st2" d="M53.32,28.02H35.91v-0.97c0-0.53,0.43-0.97,0.97-0.97h15.47c0.53,0,0.97,0.43,0.97,0.97V28.02L53.32,28.02z
					 M52.35,24.15H36.88c-1.6,0-2.9,1.3-2.9,2.9v1.93c0,0.53,0.43,0.97,0.97,0.97h19.34c0.53,0,0.97-0.43,0.97-0.97v-1.93
					C55.26,25.44,53.95,24.15,52.35,24.15L52.35,24.15z"/>
				<path class="st2" d="M38.82,55.14c6.03-0.02,11.08,4.58,11.6,10.59H27.26c0.5-6.01,5.52-10.63,11.56-10.64V55.14L38.82,55.14z
					 M39.78,53.21v-1.01h-1.93v0.97c-6.72,0.49-12.06,5.85-12.52,12.57h-1.98v1.93h30.95v-1.93h-1.93
					C51.86,59.01,46.51,53.67,39.78,53.21L39.78,53.21z"/>
				<path class="st2" d="M38.82,57.03v1.93c1.9-0.01,3.73,0.68,5.16,1.93l1.3-1.44C43.49,57.88,41.19,57.02,38.82,57.03L38.82,57.03
					z"/>
				<path class="st2" d="M46.85,61.32l-1.6,1.08c0.36,0.53,0.65,1.11,0.86,1.71l1.83-0.64C47.66,62.71,47.3,61.99,46.85,61.32
					L46.85,61.32z"/>
				<path class="st2" d="M33.01,50.26h7.74c0.53,0,0.97,0.43,0.97,0.97v0.97h1.93v-0.96c0-0.33-0.06-0.66-0.17-0.97h2.11
					c0.53,0,0.97,0.43,0.97,0.97v0.97h1.93v-0.97c0-1.6-1.3-2.9-2.9-2.9H33.01c-0.53,0-0.97-0.43-0.97-0.97h-1.93
					C30.11,48.96,31.41,50.26,33.01,50.26L33.01,50.26z"/>
			</g>
		</g>
	</g>
</g>
</svg>
