<?xml version="1.0" encoding="utf-8"?>
<!-- Generator: Adobe Illustrator 25.2.3, SVG Export Plug-In . SVG Version: 6.00 Build 0)  -->
<svg version="1.1" id="Ebene_1" xmlns="http://www.w3.org/2000/svg" xmlns:xlink="http://www.w3.org/1999/xlink" x="0px" y="0px"
	 viewBox="0 0 90.34 90.34" style="enable-background:new 0 0 90.34 90.34;" xml:space="preserve">
<style type="text/css">
	.st0{fill-rule:evenodd;clip-rule:evenodd;fill:#FFFFFF;stroke:#9D9D9C;stroke-width:2;stroke-miterlimit:10;}
	.st1{fill:#1A9DD9;}
</style>
<circle class="st0" cx="45.17" cy="45.17" r="44.67"/>
<g>
	<g>
		<g>
			<path class="st1" d="M44.62,17.98c-11.23,0-21.45,5.97-26.67,15.58c-0.35,0.64-0.33,1.42,0.04,2.05
				c0.37,0.63,1.05,1.01,1.78,1.01h22.78v10.35H32.2c-1.14,0-2.07,0.93-2.07,2.07s0.93,2.07,2.07,2.07h10.35v18.64
				c0,1.14,0.93,2.07,2.07,2.07c1.14,0,2.07-0.93,2.07-2.07V51.12h10.35c1.14,0,2.07-0.93,2.07-2.07s-0.93-2.07-2.07-2.07H46.7
				V36.62h22.78c0.73,0,1.41-0.38,1.78-1.01c0.37-0.63,0.39-1.41,0.04-2.05C66.08,23.95,55.86,17.98,44.62,17.98 M23.56,32.48
				c3.73-4.98,9.21-8.41,15.4-9.73c-2.31,2.87-3.88,6.12-4.66,9.73H23.56z M38.55,32.48c0.99-3.73,3.03-6.98,6.08-9.71
				c3.05,2.73,5.09,5.98,6.08,9.71H38.55z M54.96,32.48c-0.78-3.61-2.35-6.87-4.66-9.73c6.18,1.32,11.67,4.75,15.4,9.73H54.96z"/>
			<path class="st1" d="M38.41,57.33v12.43c0,1.14-0.93,2.07-2.07,2.07c-1.14,0-2.07-0.93-2.07-2.07V59.4H23.92v10.35
				c0,1.14-0.93,2.07-2.07,2.07s-2.07-0.93-2.07-2.07V44.91c0-1.14,0.93-2.07,2.07-2.07s2.07,0.93,2.07,2.07v10.35h12.43
				C37.49,55.26,38.41,56.19,38.41,57.33"/>
			<path class="st1" d="M69.47,42.83v26.92c0,1.14-0.93,2.07-2.07,2.07s-2.07-0.93-2.07-2.07V59.4H54.98v10.35
				c0,1.14-0.93,2.07-2.07,2.07c-1.14,0-2.07-0.93-2.07-2.07V57.33c0-1.14,0.93-2.07,2.07-2.07h12.43V42.83
				c0-1.14,0.93-2.07,2.07-2.07S69.47,41.69,69.47,42.83"/>
		</g>
	</g>
</g>
</svg>
