<?xml version="1.0" encoding="utf-8"?>
<!-- Generator: Adobe Illustrator 26.2.1, SVG Export Plug-In . SVG Version: 6.00 Build 0)  -->
<svg version="1.1" id="Ebene_1" xmlns="http://www.w3.org/2000/svg" xmlns:xlink="http://www.w3.org/1999/xlink" x="0px" y="0px"
	 viewBox="0 0 774.71 272.77" style="enable-background:new 0 0 774.71 272.77;" xml:space="preserve">
<style type="text/css">
	.st0{fill:#434342;}
</style>
<g>
	<g>
		<path class="st0" d="M314.3,23c1.93,0,3.5,1.57,3.5,3.5v219.77c0,1.93-1.57,3.5-3.5,3.5H26.5c-1.93,0-3.5-1.57-3.5-3.5V26.5
			c0-1.93,1.57-3.5,3.5-3.5H314.3 M314.3,0H26.5C11.89,0,0,11.89,0,26.5v219.77c0,14.61,11.89,26.5,26.5,26.5h287.8
			c14.61,0,26.5-11.89,26.5-26.5V26.5C340.8,11.89,328.91,0,314.3,0L314.3,0z"/>
	</g>
	<g>
		<circle class="st0" cx="80.9" cy="80.39" r="33.94"/>
	</g>
	<polygon class="st0" points="292.9,226.39 45.9,226.39 45.9,191.39 104.4,132.89 132.4,160.89 219.9,73.39 296.4,149.89 
		296.28,226.54 	"/>
</g>
<rect x="378.91" y="14.2" class="st0" width="395.8" height="32.38"/>
<rect x="378.91" y="65.22" class="st0" width="395.8" height="32.38"/>
<rect x="378.91" y="116.24" class="st0" width="395.8" height="32.38"/>
<rect x="378.91" y="167.27" class="st0" width="395.8" height="32.38"/>
<rect x="378.91" y="218.29" class="st0" width="395.8" height="32.38"/>
</svg>
