<?xml version="1.0" encoding="utf-8"?>
<!-- Generator: Adobe Illustrator 26.2.1, SVG Export Plug-In . SVG Version: 6.00 Build 0)  -->
<svg version="1.1" id="Ebene_1" xmlns="http://www.w3.org/2000/svg" xmlns:xlink="http://www.w3.org/1999/xlink" x="0px" y="0px"
	 viewBox="0 0 784.51 272.77" style="enable-background:new 0 0 784.51 272.77;" xml:space="preserve">
<style type="text/css">
	.st0{fill:#434342;}
</style>
<g>
	<g>
		<path class="st0" d="M758.01,23c1.93,0,3.5,1.57,3.5,3.5v219.77c0,1.93-1.57,3.5-3.5,3.5h-287.8c-1.93,0-3.5-1.57-3.5-3.5V26.5
			c0-1.93,1.57-3.5,3.5-3.5H758.01 M758.01,0h-287.8c-14.61,0-26.5,11.89-26.5,26.5v219.77c0,14.61,11.89,26.5,26.5,26.5h287.8
			c14.61,0,26.5-11.89,26.5-26.5V26.5C784.51,11.89,772.62,0,758.01,0L758.01,0z"/>
	</g>
	<g>
		<circle class="st0" cx="524.61" cy="80.39" r="33.94"/>
	</g>
	<polygon class="st0" points="736.61,226.39 489.61,226.39 489.61,191.39 548.11,132.89 576.11,160.89 663.61,73.39 740.11,149.89 
		739.99,226.54 	"/>
</g>
<rect y="14.09" class="st0" width="395.8" height="32.38"/>
<rect y="65.11" class="st0" width="395.8" height="32.38"/>
<rect y="116.14" class="st0" width="395.8" height="32.38"/>
<rect y="167.16" class="st0" width="395.8" height="32.38"/>
<rect y="218.19" class="st0" width="395.8" height="32.38"/>
</svg>
