<?xml version="1.0" encoding="utf-8"?>
<!-- Generator: Adobe Illustrator 26.2.1, SVG Export Plug-In . SVG Version: 6.00 Build 0)  -->
<svg version="1.1" id="Ebene_1" xmlns="http://www.w3.org/2000/svg" xmlns:xlink="http://www.w3.org/1999/xlink" x="0px" y="0px"
	 viewBox="0 0 774.71 272.77" style="enable-background:new 0 0 774.71 272.77;" xml:space="preserve">
<style type="text/css">
	.st0{fill:#434342;}
</style>
<g>
	<path class="st0" d="M140.06,22.01c0.74,0,1.34,0.6,1.34,1.34v84.33c0,0.74-0.6,1.34-1.34,1.34H29.63c-0.74,0-1.34-0.6-1.34-1.34
		V23.35c0-0.74,0.6-1.34,1.34-1.34H140.06 M140.06,13.18H29.63c-5.61,0-10.17,4.56-10.17,10.17v84.33c0,5.61,4.56,10.17,10.17,10.17
		h110.44c5.61,0,10.17-4.56,10.17-10.17V23.35C150.23,17.75,145.67,13.18,140.06,13.18L140.06,13.18z"/>
	<circle class="st0" cx="50.5" cy="44.03" r="13.02"/>
	<polygon class="st0" points="131.85,100.06 37.07,100.06 37.07,86.62 59.52,64.18 70.26,74.92 103.84,41.34 133.19,70.7 
		133.15,100.11 	"/>
</g>
<g>
	<path class="st0" d="M295.97,22.01c0.74,0,1.34,0.6,1.34,1.34v84.33c0,0.74-0.6,1.34-1.34,1.34H185.53c-0.74,0-1.34-0.6-1.34-1.34
		V23.35c0-0.74,0.6-1.34,1.34-1.34H295.97 M295.97,13.18H185.53c-5.61,0-10.17,4.56-10.17,10.17v84.33
		c0,5.61,4.56,10.17,10.17,10.17h110.44c5.61,0,10.17-4.56,10.17-10.17V23.35C306.14,17.75,301.57,13.18,295.97,13.18L295.97,13.18z
		"/>
	<circle class="st0" cx="206.41" cy="44.03" r="13.02"/>
	<polygon class="st0" points="287.76,100.06 192.98,100.06 192.98,86.62 215.42,64.18 226.17,74.92 259.74,41.34 289.1,70.7 
		289.05,100.11 	"/>
</g>
<g>
	<path class="st0" d="M140.06,163.74c0.74,0,1.34,0.6,1.34,1.34v84.33c0,0.74-0.6,1.34-1.34,1.34H29.63c-0.74,0-1.34-0.6-1.34-1.34
		v-84.33c0-0.74,0.6-1.34,1.34-1.34H140.06 M140.06,154.92H29.63c-5.61,0-10.17,4.56-10.17,10.17v84.33
		c0,5.61,4.56,10.17,10.17,10.17h110.44c5.61,0,10.17-4.56,10.17-10.17v-84.33C150.23,159.48,145.67,154.92,140.06,154.92
		L140.06,154.92z"/>
	<circle class="st0" cx="50.5" cy="185.76" r="13.02"/>
	<polygon class="st0" points="131.85,241.79 37.07,241.79 37.07,228.36 59.52,205.91 70.26,216.65 103.84,183.08 133.19,212.43 
		133.15,241.85 	"/>
</g>
<g>
	<path class="st0" d="M295.97,163.74c0.74,0,1.34,0.6,1.34,1.34v84.33c0,0.74-0.6,1.34-1.34,1.34H185.53c-0.74,0-1.34-0.6-1.34-1.34
		v-84.33c0-0.74,0.6-1.34,1.34-1.34H295.97 M295.97,154.92H185.53c-5.61,0-10.17,4.56-10.17,10.17v84.33
		c0,5.61,4.56,10.17,10.17,10.17h110.44c5.61,0,10.17-4.56,10.17-10.17v-84.33C306.14,159.48,301.57,154.92,295.97,154.92
		L295.97,154.92z"/>
	<circle class="st0" cx="206.41" cy="185.76" r="13.02"/>
	<polygon class="st0" points="287.76,241.79 192.98,241.79 192.98,228.36 215.42,205.91 226.17,216.65 259.74,183.08 289.1,212.43 
		289.05,241.85 	"/>
</g>
<rect x="359.45" y="15.02" class="st0" width="395.8" height="32.38"/>
<rect x="359.45" y="66.04" class="st0" width="395.8" height="32.38"/>
<rect x="359.45" y="117.07" class="st0" width="395.8" height="32.38"/>
<rect x="359.45" y="168.09" class="st0" width="395.8" height="32.38"/>
<rect x="359.45" y="219.12" class="st0" width="395.8" height="32.38"/>
</svg>
