<?xml version="1.0" encoding="utf-8"?>
<!-- Generator: Adobe Illustrator 25.2.3, SVG Export Plug-In . SVG Version: 6.00 Build 0)  -->
<svg version="1.1" id="Ebene_1" xmlns="http://www.w3.org/2000/svg" xmlns:xlink="http://www.w3.org/1999/xlink" x="0px" y="0px"
	 viewBox="0 0 90.34 90.34" style="enable-background:new 0 0 90.34 90.34;" xml:space="preserve">
<style type="text/css">
	.st0{fill-rule:evenodd;clip-rule:evenodd;fill:#FFFFFF;stroke:#9D9D9C;stroke-width:2;stroke-miterlimit:10;}
	.st1{fill:#1A9DD9;}
</style>
<circle class="st0" cx="45.17" cy="45.17" r="44.67"/>
<g>
	<g>
		<g>
			<path class="st1" d="M71.88,48.21L63.8,35.26l1.23-1.64l-4.11-5.23c0.6-0.88,0.96-1.95,0.96-3.1c0-3.03-2.45-5.48-5.48-5.48
				c-3.03,0-5.48,2.45-5.48,5.48c0,1.11,0.34,2.15,0.91,3.02l-3.58,5.38l1.62,1.37l-7.75,12.13c0,0-0.6,1.62,0.21,2.4
				c0.96,0.93,2.36,0.14,2.36,0.14l5.96-9.25l1.37,1.85c0,0-6.3,16.03-7.06,18.02c-0.75,1.99,1.37,2.4,1.37,2.4h5.3
				c0,0-0.08,11.11-0.08,11.34c0,1.18,0.97,2.14,2.17,2.14c1.2,0,2.21-0.96,2.21-2.14c0-0.14,0.03-11.34,0.03-11.34h1.63
				c0,0-0.01,11.32-0.01,11.34c0,1.18,0.97,2.14,2.17,2.14c1.2,0,2.17-0.96,2.17-2.14c0-0.05-0.01-11.41-0.01-11.41h5.12
				c2.81,0,1.3-3.02,1.3-3.02l-7.06-16.71l1.51-2.06l5.48,8.7c0,0,1.85,2.06,3.15,1.1C72.7,49.72,71.88,48.21,71.88,48.21
				 M59.48,42.53l7.47,18.43H46.05l7.86-18.54c0,0-2.44-2.93-2.44-4.44c0-0.86,1.06-3.22,5.27-3.15c4.31,0.07,5.1,2.47,5.1,3.15
				C61.84,39.37,59.48,42.53,59.48,42.53 M63.04,34.03c0,0-2.4-1.99-6.65-1.99s-5.62,1.99-5.62,1.99l-0.52-0.41l2.65-4.11
				c0,0,1.54,1.58,3.43,1.58c2.09,0,3.7-1.58,3.7-1.58l3.39,4.04L63.04,34.03z"/>
			<path class="st1" d="M46,13.15c-2.31-0.65-3.7,0.97-3.97,1.33c-0.27-0.36-1.9-2.12-4.16-1.29c-2.65,0.97-2.6,4.07-1.2,6.5
				c1.26,2.19,5.06,4.81,5.34,5.02c0,0,4.1-2.83,5.36-5.02C48.79,17.25,48.33,13.8,46,13.15 M38.75,14.99
				c-0.06,0-0.51,0.02-0.86,0.49c-0.22,0.3-0.27,0.57-0.27,0.78c0,0.18,0.04,0.32,0.06,0.37l0,0.01h0c0.09,0.21,0,0.45-0.2,0.54
				c-0.06,0.03-0.11,0.04-0.17,0.04c-0.16,0-0.31-0.09-0.37-0.24c-0.01-0.04-0.14-0.31-0.14-0.72c0-0.36,0.1-0.82,0.44-1.27
				c0.58-0.77,1.36-0.82,1.52-0.82c0.02,0,0.04,0,0.05,0c0.23,0.02,0.39,0.22,0.37,0.44C39.16,14.83,38.97,15,38.75,14.99"/>
			<path class="st1" d="M29.22,39.72c-0.38,0-0.68,0.31-0.68,0.69c0,0.38,0.31,0.68,0.68,0.68c0.38,0,0.69-0.31,0.69-0.68
				C29.91,40.02,29.6,39.72,29.22,39.72"/>
			<path class="st1" d="M29.22,37.27c-0.38,0-0.68,0.31-0.68,0.69c0,0.38,0.31,0.68,0.68,0.68c0.38,0,0.69-0.31,0.69-0.68
				C29.91,37.58,29.6,37.27,29.22,37.27"/>
			<path class="st1" d="M29.17,30.68c3.22,0,5.83-2.61,5.83-5.83c0-3.22-2.61-5.83-5.83-5.83c-3.22,0-5.83,2.61-5.83,5.83
				C23.34,28.07,25.95,30.68,29.17,30.68"/>
			<path class="st1" d="M29.22,34.99c-0.38,0-0.68,0.31-0.68,0.68c0,0.38,0.31,0.68,0.68,0.68c0.38,0,0.69-0.31,0.69-0.68
				C29.91,35.3,29.6,34.99,29.22,34.99"/>
			<path class="st1" d="M43.85,46.77l-6.34-12.01c-0.21-0.6-2.2-2.73-3.36-2.92c-1.93,4.5-4.85,12.04-4.85,12.04
				s-2.74-6.71-5.15-12.1c-2.86,0.42-5.38,1.55-5.31,4.42c0,0-0.09,16.5-0.09,16.53c0,1.17,0.73,2.12,1.9,2.12
				c1.17,0,1.8-0.95,1.8-2.12c0-0.05,0.08-13.78,0.06-14.07c-0.02-0.29,0.99-0.85,0.99,0.21l0.11,12.25l0,0l0.23,22.02
				c0,0.02-0.01,0.04-0.01,0.06c0,1.16,1.28,2.11,2.44,2.11c1.16,0,2.32-0.94,2.32-2.11h0.02l0-20.2l0.34-0.11l0.72,0.09l0,20.22h0
				c0,1.16,1.38,2.11,2.57,2.11c1.19,0,2.29-0.94,2.29-2.11h0l0-34.32c0.06-1.77-0.49-1.33,0.83-0.01c0.23,0.23,5.29,9.35,5.29,9.35
				s1.5,2.75,3.25,1.38C45.11,48.63,43.85,46.77,43.85,46.77"/>
			<polygon class="st1" points="31.85,31.31 28.93,32.96 26.23,31.31 26.21,35.33 28.97,33.41 31.85,35.29 			"/>
		</g>
	</g>
</g>
</svg>
