<?xml version="1.0" encoding="utf-8"?>
<!-- Generator: Adobe Illustrator 25.3.1, SVG Export Plug-In . SVG Version: 6.00 Build 0)  -->
<svg version="1.1" id="Ebene_1" xmlns="http://www.w3.org/2000/svg" xmlns:xlink="http://www.w3.org/1999/xlink" x="0px" y="0px"
	 viewBox="0 0 297.7 177.8" style="enable-background:new 0 0 297.7 177.8;" xml:space="preserve">
<style type="text/css">
	.st0{fill:#00A0DF;}
	.st1{enable-background:new    ;}
</style>
<g>
	<path class="st0" d="M193.3,26c0,0,0.1,0,0.1,0c0.5,0.9,1.3,2.4,1.4,4.7c0,0.5,0,1.7,0.6,2.1c0.6,0.5,1.8,1.1,4.6,2.6
		c-2.6-1.2-4.7-2.1-5.5-2.5c-0.3-0.1-0.3-0.4-0.2-0.7C194.5,31.2,194.8,28.7,193.3,26 M238.7,82.1c0-2.2-0.1-4.3-0.3-6.4
		c0.3,21.2-12.6,42.3-34.4,52.7c-29.1,13.9-63,3.4-75.8-23.4c-12.8-26.8,0.4-59.8,29.5-73.6c11.4-5.4,23.5-7.1,34.8-5.5
		c1.8,2.9,1.5,5.6,1.2,6.6c-0.1,0.3,0,0.6,0.2,0.7c2.8,1.3,22,10.1,22,10.1l0.1-0.1l0-0.1l-16.4-10.7c0,0-0.3-0.2-0.1-0.5
		c0.2-0.3,0.4-0.2,0.4-0.2l17.6,8.4l0.1-0.1l0-0.1l-16.3-10.7c0,0-0.3-0.2-0.1-0.5c0.2-0.3,0.4-0.2,0.4-0.2l17.6,8.5l0.1-0.1l0-0.1
		l-16.3-10.8c0,0-0.3-0.2-0.1-0.5c0.2-0.3,0.5-0.2,0.5-0.2l17.6,8.5l0.1-0.1l0-0.1c0,0-17.4-11.9-20-13.6c-0.2-0.2-0.5-0.1-0.7,0.1
		c-0.8,0.8-2.9,2.4-6.3,2.4c-5.6-1.7-11.6-2.6-17.7-2.6c-34.3,0-62.1,27.8-62.1,62.1s27.8,62.1,62.1,62.1
		C210.9,144.2,238.7,116.4,238.7,82.1"/>
	<g>
		<path class="st0" d="M17.4,117.3l-2.1-38.2l-2.1,38.2H7.1L1.9,58.7h6.2L10.2,97l2.1-38.3h6.1L20.5,97l2.2-38.3h6.1l-5.2,58.6H17.4
			z"/>
		<path class="st0" d="M43.1,117.3V67c0-0.9-0.2-1.8-0.6-2.4s-0.9-1-1.5-1c-0.5,0-1,0.3-1.5,0.9c-0.4,0.6-0.6,1.5-0.6,2.6v50.2h-6.1
			l-0.1-69.9h6.2v12.8c0.4-0.6,1-1.1,1.8-1.5c0.8-0.4,1.6-0.6,2.6-0.6c2.1,0,3.7,0.7,4.7,2.1c0.9,1.3,1.3,3.4,1.3,6.1v50.9
			L43.1,117.3C43.1,117.3,43.1,117.3,43.1,117.3z"/>
		<path class="st0" d="M61.4,117.8c-5.2,0-7.8-2.7-7.8-8.2V66.4c0-5.5,2.6-8.2,7.8-8.2h0.9c5.2,0,7.8,2.7,7.8,8.2v9.1
			c0,1.8-0.1,3.3-0.2,4.5c-0.2,1.2-0.4,2.3-0.8,3.2c-0.4,1.1-1,2.1-1.7,3.1s-1.8,2.3-3.1,3.7c-1.8,2-3,3.6-3.6,4.7
			c-0.5,1.1-0.8,2.6-0.8,4.4v9.8c0,0.9,0.2,1.7,0.5,2.4c0.3,0.7,0.9,1,1.6,1c0.6,0,1.1-0.3,1.5-0.9s0.6-1.5,0.6-2.6V96.5h6.1v13
			c0,5.5-2.6,8.2-7.8,8.2C62.3,117.8,61.4,117.8,61.4,117.8z M61.9,63.7c-0.7,0-1.2,0.3-1.6,1c-0.3,0.7-0.5,1.5-0.5,2.4v18.6
			l0.2-0.2c1.8-1.8,2.8-3.3,3.3-4.5c0.5-1.2,0.7-2.7,0.7-4.6v-9.3c0-1.2-0.2-2-0.6-2.6C63,64,62.5,63.7,61.9,63.7z"/>
		<path class="st0" d="M74.3,117.3V58.6h6.1v1.9c0.9-1.5,2.4-2.3,4.4-2.3h0.4v6.3h-0.4c-1.3,0-2.4,0.5-3.2,1.6s-1.2,2.5-1.2,4.4
			v46.9H74.3z"/>
	</g>
	<g class="st1">
		<path class="st0" d="M96.2,117.8c-5.2,0-7.9-2.7-7.9-8.2V66.4c0-5.5,2.6-8.2,7.9-8.2h0.9c5.2,0,7.8,2.7,7.8,8.2v9.1
			c0,1.8-0.1,3.4-0.2,4.5c-0.1,1.2-0.4,2.3-0.8,3.3c-0.4,1-1,2.1-1.7,3.1c-0.7,1-1.8,2.3-3.1,3.7c-1.8,2-3,3.6-3.6,4.7
			c-0.5,1.1-0.8,2.6-0.8,4.4v9.8c0,0.9,0.2,1.7,0.5,2.4c0.3,0.7,0.9,1,1.6,1c0.6,0,1.1-0.3,1.5-0.9c0.4-0.6,0.6-1.5,0.6-2.6V96.5
			h6.1v13c0,5.5-2.6,8.2-7.8,8.2H96.2z M96.6,63.7c-0.7,0-1.2,0.3-1.6,1c-0.3,0.7-0.5,1.5-0.5,2.4v18.6l0.1-0.1
			c1.7-1.8,2.9-3.3,3.3-4.5c0.5-1.1,0.7-2.7,0.7-4.6v-9.3c0-1.1-0.2-2-0.6-2.6C97.7,64,97.2,63.7,96.6,63.7z"/>
	</g>
	<g>
		<path class="st0" d="M251.9,112.8c-5.2,0-7.9-2.7-7.9-8.2V61.4c0-5.5,2.6-8.2,7.9-8.2h0.9c5.2,0,7.8,2.7,7.8,8.2v9.1
			c0,1.8-0.1,3.3-0.2,4.5c-0.1,1.2-0.4,2.3-0.8,3.2c-0.4,1.1-1,2.1-1.7,3.1s-1.8,2.3-3.1,3.7c-1.9,2-3,3.6-3.6,4.7
			c-0.6,1.1-0.8,2.6-0.8,4.4v9.8c0,0.9,0.2,1.7,0.5,2.4c0.4,0.7,0.9,1,1.6,1c0.6,0,1.1-0.3,1.5-0.9s0.6-1.5,0.6-2.6V91.6h6.1v13
			c0,5.5-2.6,8.2-7.8,8.2C252.8,112.8,251.9,112.8,251.9,112.8z M252.3,58.7c-0.7,0-1.2,0.3-1.6,1s-0.5,1.5-0.5,2.4v18.6l0.1-0.2
			c1.8-1.8,2.9-3.3,3.3-4.5c0.5-1.2,0.7-2.7,0.7-4.6v-9.3c0-1.2-0.2-2-0.6-2.6C253.4,59,252.9,58.7,252.3,58.7z"/>
		<path class="st0" d="M272.1,112.5c-1.1,0-2-0.2-2.8-0.4c-0.8-0.3-1.6-0.9-2.5-1.7c-1.4-1.4-2-3.5-2-6.2l0.1-8.5
			c0-1.8,0.1-3.3,0.2-4.5c0.1-1.2,0.4-2.3,0.8-3.3c0.8-2,2.4-4.3,4.9-6.8c1.8-2,3-3.6,3.6-4.7c0.5-1.1,0.8-2.6,0.8-4.4v-9.9
			c0-0.9-0.2-1.7-0.6-2.4c-0.4-0.7-0.9-1-1.5-1c-0.6,0-1.1,0.3-1.5,0.9c-0.4,0.6-0.6,1.5-0.6,2.6v12.3h-6.2V61.4
			c0-5.5,2.6-8.2,7.9-8.2h0.9c5.2,0,7.9,2.7,7.9,8.2l-0.1,45.6c0,1.2,0,2.1,0.1,2.8c0.1,0.7,0.2,1.6,0.5,2.5H276
			c-0.2-0.5-0.4-1.2-0.5-1.9c-0.2,0.5-0.6,1-1.2,1.4C273.7,112.3,273,112.5,272.1,112.5z M275,85.5c-1.8,1.8-2.9,3.3-3.3,4.5
			s-0.7,2.7-0.7,4.6v9.3c0,0.9,0.2,1.8,0.6,2.4s0.9,1,1.5,1c0.5,0,1-0.3,1.5-0.9c0.4-0.6,0.6-1.5,0.6-2.6V85.4L275,85.5z"/>
	</g>
	<g class="st1">
		<path class="st0" d="M294.3,112.4c-5.2,0-7.8-2.7-7.8-8.2l-0.1-44.4h-1.9v-6.1h1.9V42.5h6.2v11.1h2.8v6.1h-2.8v43.7
			c0,0.9,0.2,1.7,0.6,2.4c0.4,0.7,0.9,1,1.5,1h0.7v5.5H294.3z"/>
	</g>
	<g>
		<path class="st0" d="M151,83.7c-1.1-0.4-2.2-1.4-3-3.2c-0.9-1.7-1.3-3.9-1.3-6.4c0-1.7,0.3-3.5,0.8-5.4c0.5-1.9,1.4-3.8,2.5-5.8
			c3-4.9,6.8-9.4,11.2-13.4s9.2-7.3,14.2-9.7s9.7-3.7,14.1-3.7c2.9,0,5.5,0.6,7.9,1.9c2.4,1.3,4.3,3.3,5.9,6
			c0.9,2.3,1.4,4.8,1.4,7.4c0,3.7-0.8,7.5-2.5,11.5s-3.8,7.9-6.6,11.9c-2.7,4-5.8,7.8-9.2,11.5c-3.4,3.7-6.9,7.2-10.4,10.5
			c-3.6,3.2-7,6.2-10.2,8.7c3.5-0.5,7-1,10.4-1.4c3.5-0.4,7.1-0.6,10.8-0.6c2.8,0,5.8,0.1,8.9,0.4c1.3,2.6,2.4,4.9,3.1,7
			s1.2,4.3,1.5,6.8c-1.8-1.9-4.5-3.3-8.2-4.2s-7.8-1.3-12.2-1.3c-5.3,0-10.5,0.5-15.6,1.5c-5.1,1-9.2,2.3-12.2,3.9
			c-1.4,0-2.5-0.4-3.3-1.1c-0.8-0.7-1.5-1.6-2-2.8s-0.9-2.3-1.3-3.6c5-3.2,10.5-7.4,16.5-12.8s11.8-11.2,17.4-17.5
			s10.2-12.6,13.9-18.7s5.7-11.5,6-16.2c-1.6-1.2-3.8-1.8-6.5-1.8c-4.2,0-9.2,1.5-15,4.4c-5.8,2.9-11.1,7.4-16.1,13.4
			C156.9,67.3,153.3,74.7,151,83.7z"/>
	</g>
</g>
</svg>
